<svg width="1440" height="523" viewBox="0 0 1440 523" fill="none" xmlns="http://www.w3.org/2000/svg">
<g clip-path="url(#clip0_113_271)">
<rect width="1440" height="523" fill="url(#paint0_linear_113_271)"/>
<g opacity="0.7">
<path fill-rule="evenodd" clip-rule="evenodd" d="M927.5 885.504C937.766 758.506 1017.04 505.091 1059.91 409.451C1099.74 320.572 1120.06 286.553 1177.5 255.009C1232.59 224.755 1318.25 266.193 1375 279.105C1447.73 295.652 1551.64 199.727 1588.88 326.258C1627.19 456.419 1553.85 608.999 1532.8 754.157C1518.8 850.651 1508.17 942.658 1486.35 1033.11C1459.2 1145.66 1449.47 1304.47 1390.44 1344.32C1331.48 1384.11 1281.69 1236.75 1220.68 1212.44C1145.6 1182.54 1052.14 1294.21 997.002 1187.6C943.602 1084.35 915.623 1032.44 927.5 885.504Z" fill="url(#paint1_linear_113_271)" fill-opacity="0.3"/>
<path fill-rule="evenodd" clip-rule="evenodd" d="M1039.14 937.809C1040.37 824.743 1053.74 713.788 1085.25 620.045C1114.53 532.927 1159.8 477.254 1207.89 435.743C1254.01 395.926 1293.81 438.388 1344 435.743C1408.32 432.355 1500.59 317.17 1540.68 418.209C1581.93 522.147 1527.35 672.911 1517.83 804.427C1511.5 891.85 1507.83 974.548 1494.32 1058.63C1477.52 1163.24 1478.68 1303.87 1429.71 1353.01C1380.8 1402.07 1328.51 1285.97 1273.93 1279.74C1206.75 1272.07 1132.17 1392.15 1077.7 1312.83C1024.95 1236.01 1037.71 1068.63 1039.14 937.809Z" fill="url(#paint2_linear_113_271)" fill-opacity="0.4"/>
<path fill-rule="evenodd" clip-rule="evenodd" d="M1138.13 919.301C1153.45 815.639 1179.72 720.071 1220.54 649.557C1258.49 584.029 1307.23 555.593 1356.79 541.643C1404.33 528.265 1449.84 548.936 1496.46 571.897C1556.21 601.325 1641.64 580.426 1665.94 693.909C1690.93 810.645 1621.67 922.076 1596.38 1038.56C1579.56 1115.98 1565.8 1190.4 1542.79 1261.11C1514.15 1349.09 1497.57 1479.39 1446.24 1499.92C1394.97 1520.42 1361.32 1386.87 1311.76 1353.5C1250.76 1312.43 1166.9 1385.44 1126.62 1284.71C1087.61 1187.16 1120.39 1039.23 1138.13 919.301Z" fill="url(#paint3_linear_113_271)" fill-opacity="0.6"/>
</g>
<g opacity="0.5">
<path fill-rule="evenodd" clip-rule="evenodd" d="M43 516.042C-13.417 455.046 -91.4972 556.354 -122.5 443.756C-151.311 339.118 -160.612 119.83 -156.682 0.5236C-152.913 -113.909 -129.881 -215.35 -105.252 -318.824C-73.6885 -451.43 -65.0909 -656.313 6.63529 -685.615C80.4193 -715.758 128.261 -526.723 189.698 -439.318C230.539 -381.215 270.367 -330.964 305.807 -259.991C349.903 -171.681 421.468 -101.295 420.927 23.7568C420.385 148.632 334.746 194.955 303.367 302.775C264.745 435.481 286.756 649.336 218.553 719.117C152.499 786.698 108.273 586.614 43 516.042Z" fill="url(#paint4_linear_113_271)" fill-opacity="0.3"/>
<path fill-rule="evenodd" clip-rule="evenodd" d="M130 421.669C77.1864 382.372 13.321 385.604 -20.5 295.168C-51.931 211.125 -50.7568 200.52 -54.5752 95.6999C-58.2382 -4.8387 -44.3437 -98.7814 -29.1825 -194.883C-9.75192 -318.04 -14.6996 -498.502 45.9618 -541.557C108.365 -585.848 161.481 -432.993 220.268 -371.936C259.346 -331.346 297.068 -297.345 332.225 -244.232C375.971 -178.145 442.541 -134.379 449.657 -25.3882C456.763 83.4526 385.023 144.729 364.249 246.267C338.681 371.239 370.818 552.021 315.679 629.453C262.279 704.442 191.104 467.134 130 421.669Z" fill="url(#paint5_linear_113_271)" fill-opacity="0.4"/>
<path fill-rule="evenodd" clip-rule="evenodd" d="M167.5 249.989C123.721 187.016 11.8413 196.908 -8.00014 96.3813C-26.4388 2.961 85.364 24.3163 95 -74.2941C104.243 -168.875 80.9529 -168.022 107 -248.985C140.382 -352.742 181.646 -239.977 243 -248.985C306.114 -258.253 300.736 -480.81 356.14 -444.452C417.702 -404.053 330.381 -178.223 356.14 -111.441C388.19 -28.3453 531.325 -112.856 524.206 -8.72922C517.098 95.2543 443.239 115.46 411.332 198.597C372.062 300.919 379.01 483.922 318.434 527.433C259.769 569.57 218.149 322.85 167.5 249.989Z" fill="url(#paint6_linear_113_271)" fill-opacity="0.6"/>
</g>
<g filter="url(#filter0_bd_113_271)">
<rect x="482" y="83.5" width="476" height="355" rx="12" fill="white"/>
<path d="M548.9 147.6H551.948C552.728 147.6 553.364 147.864 553.88 148.38C554.396 148.896 554.66 149.532 554.66 150.3C554.66 151.056 554.396 151.704 553.88 152.22C553.364 152.736 552.728 153 551.948 153H550.016V156H548.9V147.6ZM550.016 151.956H551.948C552.416 151.956 552.8 151.8 553.1 151.488C553.4 151.164 553.556 150.768 553.556 150.3C553.556 149.34 552.872 148.644 551.948 148.644H550.016V151.956ZM560.381 151.032V150H561.425V156H560.381V154.968C559.865 155.76 559.109 156.156 558.113 156.156C557.273 156.156 556.553 155.856 555.965 155.244C555.377 154.632 555.077 153.876 555.077 153C555.077 152.124 555.377 151.38 555.965 150.768C556.553 150.156 557.273 149.844 558.113 149.844C559.109 149.844 559.865 150.24 560.381 151.032ZM558.245 155.148C558.857 155.148 559.361 154.944 559.769 154.536C560.177 154.116 560.381 153.612 560.381 153C560.381 152.388 560.177 151.884 559.769 151.476C559.361 151.056 558.857 150.852 558.245 150.852C557.645 150.852 557.141 151.056 556.733 151.476C556.325 151.884 556.121 152.388 556.121 153C556.121 153.612 556.325 154.116 556.733 154.536C557.141 154.944 557.645 155.148 558.245 155.148ZM563.895 151.62C563.895 152.088 564.423 152.34 565.083 152.52C566.019 152.724 567.267 153.072 567.255 154.356C567.255 154.896 567.039 155.34 566.619 155.664C566.199 155.988 565.671 156.156 565.011 156.156C563.847 156.156 562.971 155.604 562.623 154.752L563.523 154.236C563.715 154.812 564.279 155.172 565.011 155.172C565.695 155.172 566.199 154.92 566.199 154.356C566.199 153.888 565.671 153.624 565.011 153.468C564.063 153.216 562.839 152.904 562.839 151.632C562.839 151.116 563.043 150.684 563.439 150.348C563.847 150.012 564.351 149.844 564.963 149.844C565.935 149.844 566.739 150.312 567.123 151.092L566.247 151.584C566.031 151.068 565.599 150.816 564.963 150.816C564.375 150.816 563.895 151.104 563.895 151.62ZM571.521 150V151.008H569.925V154.26C569.925 155.184 570.453 155.112 571.521 155.064V156C569.697 156.24 568.881 155.748 568.881 154.26V151.008H567.693V150H568.881V148.632L569.925 148.32V150H571.521ZM578.212 153.48H573.184C573.388 154.548 574.216 155.172 575.356 155.172C576.148 155.172 576.724 154.884 577.084 154.296L577.972 154.8C577.384 155.7 576.508 156.156 575.332 156.156C574.384 156.156 573.604 155.856 573.004 155.268C572.416 154.668 572.116 153.912 572.116 153C572.116 152.1 572.404 151.344 572.992 150.744C573.58 150.144 574.336 149.844 575.26 149.844C576.136 149.844 576.856 150.156 577.408 150.78C577.972 151.392 578.248 152.136 578.248 153.012C578.248 153.168 578.236 153.324 578.212 153.48ZM575.26 150.828C574.144 150.828 573.364 151.512 573.184 152.568H577.192C577.012 151.428 576.22 150.828 575.26 150.828ZM582.448 153.18V147.6H583.564V153.132C583.564 154.32 584.296 155.064 585.604 155.064C586.912 155.064 587.644 154.32 587.644 153.132V147.6H588.748V153.18C588.748 154.08 588.46 154.812 587.872 155.352C587.284 155.892 586.528 156.156 585.604 156.156C584.68 156.156 583.912 155.892 583.324 155.352C582.736 154.812 582.448 154.08 582.448 153.18ZM596.671 156H595.435L593.551 152.784H591.571V156H590.455V147.6H593.815C594.535 147.6 595.147 147.852 595.663 148.368C596.179 148.872 596.431 149.484 596.431 150.204C596.431 150.744 596.263 151.248 595.939 151.692C595.615 152.136 595.207 152.46 594.691 152.64L596.671 156ZM593.815 148.644H591.571V151.776H593.815C594.235 151.776 594.583 151.62 594.871 151.32C595.171 151.008 595.315 150.636 595.315 150.204C595.315 149.772 595.171 149.4 594.871 149.1C594.583 148.8 594.235 148.644 593.815 148.644ZM598.907 147.6V154.944H602.531V156H597.791V147.6H598.907ZM609.53 149.844C610.934 149.844 611.858 150.792 611.858 152.316V156H610.814V152.376C610.814 151.404 610.25 150.84 609.326 150.84C608.282 150.84 607.586 151.476 607.586 152.82V156H606.542V147.6H607.586V150.864C608.006 150.18 608.654 149.844 609.53 149.844ZM619.075 153.48H614.047C614.251 154.548 615.079 155.172 616.219 155.172C617.011 155.172 617.587 154.884 617.947 154.296L618.835 154.8C618.247 155.7 617.371 156.156 616.195 156.156C615.247 156.156 614.467 155.856 613.867 155.268C613.279 154.668 612.979 153.912 612.979 153C612.979 152.1 613.267 151.344 613.855 150.744C614.443 150.144 615.199 149.844 616.123 149.844C616.999 149.844 617.719 150.156 618.271 150.78C618.835 151.392 619.111 152.136 619.111 153.012C619.111 153.168 619.099 153.324 619.075 153.48ZM616.123 150.828C615.007 150.828 614.227 151.512 614.047 152.568H618.055C617.875 151.428 617.083 150.828 616.123 150.828ZM621.356 150V151.008C621.704 150.264 622.328 149.892 623.228 149.892V150.984C622.712 150.96 622.28 151.092 621.908 151.392C621.536 151.692 621.356 152.16 621.356 152.82V156H620.312V150H621.356ZM629.681 153.48H624.653C624.857 154.548 625.685 155.172 626.825 155.172C627.617 155.172 628.193 154.884 628.553 154.296L629.441 154.8C628.853 155.7 627.977 156.156 626.801 156.156C625.853 156.156 625.073 155.856 624.473 155.268C623.885 154.668 623.585 153.912 623.585 153C623.585 152.1 623.873 151.344 624.461 150.744C625.049 150.144 625.805 149.844 626.729 149.844C627.605 149.844 628.325 150.156 628.877 150.78C629.441 151.392 629.717 152.136 629.717 153.012C629.717 153.168 629.705 153.324 629.681 153.48ZM626.729 150.828C625.613 150.828 624.833 151.512 624.653 152.568H628.661C628.481 151.428 627.689 150.828 626.729 150.828ZM631.097 156.132C630.665 156.132 630.317 155.784 630.317 155.352C630.317 154.92 630.665 154.572 631.097 154.572C631.541 154.572 631.877 154.92 631.877 155.352C631.877 155.784 631.541 156.132 631.097 156.132ZM634.015 156.132C633.583 156.132 633.235 155.784 633.235 155.352C633.235 154.92 633.583 154.572 634.015 154.572C634.459 154.572 634.795 154.92 634.795 155.352C634.795 155.784 634.459 156.132 634.015 156.132ZM636.932 156.132C636.5 156.132 636.152 155.784 636.152 155.352C636.152 154.92 636.5 154.572 636.932 154.572C637.376 154.572 637.712 154.92 637.712 155.352C637.712 155.784 637.376 156.132 636.932 156.132Z" fill="#3284FF"/>
<rect x="524.5" y="126" width="391" height="54" rx="11.5" stroke="#3284FF"/>
<path d="M553.656 232.682C552.172 232.682 550.94 232.192 549.974 231.212C549.008 230.232 548.532 229.028 548.532 227.6C548.532 226.172 549.008 224.968 549.974 223.988C550.94 223.008 552.172 222.518 553.656 222.518C555.448 222.518 557.044 223.442 557.884 224.898L556.75 225.556C556.19 224.478 555 223.778 553.656 223.778C552.522 223.778 551.598 224.142 550.884 224.87C550.17 225.598 549.82 226.508 549.82 227.6C549.82 228.678 550.17 229.588 550.884 230.316C551.598 231.044 552.522 231.408 553.656 231.408C555 231.408 556.19 230.708 556.75 229.644L557.884 230.288C557.478 231.016 556.89 231.604 556.134 232.038C555.378 232.472 554.552 232.682 553.656 232.682ZM564.104 229.21V225.5H565.322V232.5H564.104V231.492C563.614 232.29 562.858 232.682 561.836 232.682C560.198 232.682 559.12 231.576 559.12 229.798V225.5H560.338V229.728C560.338 230.862 560.996 231.52 562.074 231.52C563.292 231.52 564.104 230.778 564.104 229.21ZM568.212 227.39C568.212 227.936 568.828 228.23 569.598 228.44C570.69 228.678 572.146 229.084 572.132 230.582C572.132 231.212 571.88 231.73 571.39 232.108C570.9 232.486 570.284 232.682 569.514 232.682C568.156 232.682 567.134 232.038 566.728 231.044L567.778 230.442C568.002 231.114 568.66 231.534 569.514 231.534C570.312 231.534 570.9 231.24 570.9 230.582C570.9 230.036 570.284 229.728 569.514 229.546C568.408 229.252 566.98 228.888 566.98 227.404C566.98 226.802 567.218 226.298 567.68 225.906C568.156 225.514 568.744 225.318 569.458 225.318C570.592 225.318 571.53 225.864 571.978 226.774L570.956 227.348C570.704 226.746 570.2 226.452 569.458 226.452C568.772 226.452 568.212 226.788 568.212 227.39ZM577.109 225.5V226.676H575.247V230.47C575.247 231.548 575.863 231.464 577.109 231.408V232.5C574.981 232.78 574.029 232.206 574.029 230.47V226.676H572.643V225.5H574.029V223.904L575.247 223.54V225.5H577.109ZM584.103 231.618C583.389 232.332 582.507 232.682 581.485 232.682C580.463 232.682 579.581 232.332 578.867 231.618C578.153 230.904 577.803 230.036 577.803 229C577.803 227.964 578.153 227.096 578.867 226.382C579.581 225.668 580.463 225.318 581.485 225.318C582.507 225.318 583.389 225.668 584.103 226.382C584.817 227.096 585.181 227.964 585.181 229C585.181 230.036 584.817 230.904 584.103 231.618ZM581.485 231.492C582.185 231.492 582.773 231.254 583.249 230.778C583.725 230.302 583.963 229.714 583.963 229C583.963 228.286 583.725 227.698 583.249 227.222C582.773 226.746 582.185 226.508 581.485 226.508C580.799 226.508 580.211 226.746 579.735 227.222C579.259 227.698 579.021 228.286 579.021 229C579.021 229.714 579.259 230.302 579.735 230.778C580.211 231.254 580.799 231.492 581.485 231.492ZM594.177 225.318C595.745 225.318 596.809 226.41 596.809 228.146V232.5H595.591V228.188C595.591 227.11 594.989 226.48 594.051 226.48C593.001 226.48 592.329 227.166 592.329 228.608V232.5H591.111V228.188C591.111 227.11 590.537 226.48 589.627 226.48C588.605 226.48 587.835 227.194 587.835 228.608V232.5H586.617V225.5H587.835V226.438C588.311 225.696 589.011 225.318 589.921 225.318C590.859 225.318 591.545 225.71 591.979 226.508C592.469 225.71 593.197 225.318 594.177 225.318ZM599.114 224.226C598.652 224.226 598.288 223.862 598.288 223.414C598.288 222.966 598.652 222.588 599.114 222.588C599.562 222.588 599.926 222.966 599.926 223.414C599.926 223.862 599.562 224.226 599.114 224.226ZM599.716 232.5H598.498V225.5H599.716V232.5ZM606.572 226.312L602.988 231.338H606.712V232.5H601.322V231.688L604.892 226.662H601.462V225.5H606.572V226.312ZM614.447 229.56H608.581C608.819 230.806 609.785 231.534 611.115 231.534C612.039 231.534 612.711 231.198 613.131 230.512L614.167 231.1C613.481 232.15 612.459 232.682 611.087 232.682C609.981 232.682 609.071 232.332 608.371 231.646C607.685 230.946 607.335 230.064 607.335 229C607.335 227.95 607.671 227.068 608.357 226.368C609.043 225.668 609.925 225.318 611.003 225.318C612.025 225.318 612.865 225.682 613.509 226.41C614.167 227.124 614.489 227.992 614.489 229.014C614.489 229.196 614.475 229.378 614.447 229.56ZM611.003 226.466C609.701 226.466 608.791 227.264 608.581 228.496H613.257C613.047 227.166 612.123 226.466 611.003 226.466ZM625.185 226.704V222.7H626.403V232.5H625.185V231.296C624.583 232.22 623.701 232.682 622.539 232.682C621.559 232.682 620.719 232.332 620.033 231.618C619.347 230.904 618.997 230.022 618.997 229C618.997 227.978 619.347 227.11 620.033 226.396C620.719 225.682 621.559 225.318 622.539 225.318C623.701 225.318 624.583 225.78 625.185 226.704ZM622.693 231.506C623.407 231.506 623.995 231.268 624.471 230.792C624.947 230.302 625.185 229.714 625.185 229C625.185 228.286 624.947 227.698 624.471 227.222C623.995 226.732 623.407 226.494 622.693 226.494C621.993 226.494 621.405 226.732 620.929 227.222C620.453 227.698 620.215 228.286 620.215 229C620.215 229.714 620.453 230.302 620.929 230.792C621.405 231.268 621.993 231.506 622.693 231.506ZM634.156 231.618C633.442 232.332 632.56 232.682 631.538 232.682C630.516 232.682 629.634 232.332 628.92 231.618C628.206 230.904 627.856 230.036 627.856 229C627.856 227.964 628.206 227.096 628.92 226.382C629.634 225.668 630.516 225.318 631.538 225.318C632.56 225.318 633.442 225.668 634.156 226.382C634.87 227.096 635.234 227.964 635.234 229C635.234 230.036 634.87 230.904 634.156 231.618ZM631.538 231.492C632.238 231.492 632.826 231.254 633.302 230.778C633.778 230.302 634.016 229.714 634.016 229C634.016 228.286 633.778 227.698 633.302 227.222C632.826 226.746 632.238 226.508 631.538 226.508C630.852 226.508 630.264 226.746 629.788 227.222C629.312 227.698 629.074 228.286 629.074 229C629.074 229.714 629.312 230.302 629.788 230.778C630.264 231.254 630.852 231.492 631.538 231.492ZM644.23 225.318C645.798 225.318 646.862 226.41 646.862 228.146V232.5H645.644V228.188C645.644 227.11 645.042 226.48 644.104 226.48C643.054 226.48 642.382 227.166 642.382 228.608V232.5H641.164V228.188C641.164 227.11 640.59 226.48 639.68 226.48C638.658 226.48 637.888 227.194 637.888 228.608V232.5H636.67V225.5H637.888V226.438C638.364 225.696 639.064 225.318 639.974 225.318C640.912 225.318 641.598 225.71 642.032 226.508C642.522 225.71 643.25 225.318 644.23 225.318ZM654.347 226.704V225.5H655.565V232.5H654.347V231.296C653.745 232.22 652.863 232.682 651.701 232.682C650.721 232.682 649.881 232.332 649.195 231.618C648.509 230.904 648.159 230.022 648.159 229C648.159 227.978 648.509 227.11 649.195 226.396C649.881 225.682 650.721 225.318 651.701 225.318C652.863 225.318 653.745 225.78 654.347 226.704ZM651.855 231.506C652.569 231.506 653.157 231.268 653.633 230.792C654.109 230.302 654.347 229.714 654.347 229C654.347 228.286 654.109 227.698 653.633 227.222C653.157 226.732 652.569 226.494 651.855 226.494C651.155 226.494 650.567 226.732 650.091 227.222C649.615 227.698 649.377 228.286 649.377 229C649.377 229.714 649.615 230.302 650.091 230.792C650.567 231.268 651.155 231.506 651.855 231.506ZM658.026 224.226C657.564 224.226 657.2 223.862 657.2 223.414C657.2 222.966 657.564 222.588 658.026 222.588C658.474 222.588 658.838 222.966 658.838 223.414C658.838 223.862 658.474 224.226 658.026 224.226ZM658.628 232.5H657.41V225.5H658.628V232.5ZM663.973 225.318C665.611 225.318 666.689 226.424 666.689 228.202V232.5H665.471V228.272C665.471 227.138 664.813 226.48 663.735 226.48C662.517 226.48 661.705 227.222 661.705 228.79V232.5H660.486V225.5H661.705V226.508C662.195 225.71 662.951 225.318 663.973 225.318Z" fill="#3284FF"/>
<path d="M684 225.5L690 231.5L696 225.5" stroke="#3284FF" stroke-width="2" stroke-linecap="round" stroke-linejoin="round"/>
<rect x="524.5" y="205" width="201" height="47" rx="11.5" stroke="#3284FF"/>
<path d="M762.216 223.1H768.276V224.156H765.792V231.5H764.688V224.156H762.216V223.1ZM770.877 230.204L772.605 225.5H773.721L771.273 231.872C770.757 233.228 769.809 233.984 768.609 233.9V232.928C769.341 232.988 769.881 232.58 770.229 231.704L770.337 231.476L767.721 225.5H768.837L770.877 230.204ZM777.905 225.344C778.745 225.344 779.465 225.656 780.053 226.268C780.641 226.88 780.941 227.624 780.941 228.5C780.941 229.376 780.641 230.132 780.053 230.744C779.465 231.356 778.745 231.656 777.905 231.656C776.909 231.656 776.153 231.26 775.637 230.468V233.9H774.593V225.5H775.637V226.532C776.153 225.74 776.909 225.344 777.905 225.344ZM777.773 230.648C778.373 230.648 778.877 230.444 779.285 230.036C779.693 229.616 779.897 229.112 779.897 228.5C779.897 227.888 779.693 227.384 779.285 226.976C778.877 226.556 778.373 226.352 777.773 226.352C777.161 226.352 776.657 226.556 776.249 226.976C775.841 227.384 775.637 227.888 775.637 228.5C775.637 229.112 775.841 229.616 776.249 230.036C776.657 230.444 777.161 230.648 777.773 230.648ZM787.947 228.98H782.919C783.123 230.048 783.951 230.672 785.091 230.672C785.883 230.672 786.459 230.384 786.819 229.796L787.707 230.3C787.119 231.2 786.243 231.656 785.067 231.656C784.119 231.656 783.339 231.356 782.739 230.768C782.151 230.168 781.851 229.412 781.851 228.5C781.851 227.6 782.139 226.844 782.727 226.244C783.315 225.644 784.071 225.344 784.995 225.344C785.871 225.344 786.591 225.656 787.143 226.28C787.707 226.892 787.983 227.636 787.983 228.512C787.983 228.668 787.971 228.824 787.947 228.98ZM784.995 226.328C783.879 226.328 783.099 227.012 782.919 228.068H786.927C786.747 226.928 785.955 226.328 784.995 226.328ZM799.011 231.5H797.823L797.139 229.616H793.359L792.675 231.5H791.487L794.619 223.1H795.879L799.011 231.5ZM795.243 224.432L793.743 228.572H796.755L795.243 224.432ZM800.938 231.5H799.894V222.74H800.938V231.5ZM803.058 224.408C802.662 224.408 802.35 224.096 802.35 223.712C802.35 223.328 802.662 223.004 803.058 223.004C803.442 223.004 803.754 223.328 803.754 223.712C803.754 224.096 803.442 224.408 803.058 224.408ZM803.574 231.5H802.53V225.5H803.574V231.5ZM810.135 226.532V225.5H811.179V231.5H810.135V230.468C809.619 231.26 808.863 231.656 807.867 231.656C807.027 231.656 806.307 231.356 805.719 230.744C805.131 230.132 804.831 229.376 804.831 228.5C804.831 227.624 805.131 226.88 805.719 226.268C806.307 225.656 807.027 225.344 807.867 225.344C808.863 225.344 809.619 225.74 810.135 226.532ZM807.999 230.648C808.611 230.648 809.115 230.444 809.523 230.036C809.931 229.616 810.135 229.112 810.135 228.5C810.135 227.888 809.931 227.384 809.523 226.976C809.115 226.556 808.611 226.352 807.999 226.352C807.399 226.352 806.895 226.556 806.487 226.976C806.079 227.384 805.875 227.888 805.875 228.5C805.875 229.112 806.079 229.616 806.487 230.036C806.895 230.444 807.399 230.648 807.999 230.648ZM813.649 227.12C813.649 227.588 814.177 227.84 814.837 228.02C815.773 228.224 817.021 228.572 817.009 229.856C817.009 230.396 816.793 230.84 816.373 231.164C815.953 231.488 815.425 231.656 814.765 231.656C813.601 231.656 812.725 231.104 812.377 230.252L813.277 229.736C813.469 230.312 814.033 230.672 814.765 230.672C815.449 230.672 815.953 230.42 815.953 229.856C815.953 229.388 815.425 229.124 814.765 228.968C813.817 228.716 812.593 228.404 812.593 227.132C812.593 226.616 812.797 226.184 813.193 225.848C813.601 225.512 814.105 225.344 814.717 225.344C815.689 225.344 816.493 225.812 816.877 226.592L816.001 227.084C815.785 226.568 815.353 226.316 814.717 226.316C814.129 226.316 813.649 226.604 813.649 227.12ZM824.233 225.344C825.637 225.344 826.561 226.292 826.561 227.816V231.5H825.517V227.876C825.517 226.904 824.953 226.34 824.029 226.34C822.985 226.34 822.289 226.976 822.289 228.32V231.5H821.245V223.1H822.289V226.364C822.709 225.68 823.357 225.344 824.233 225.344ZM833.779 228.98H828.751C828.955 230.048 829.783 230.672 830.923 230.672C831.715 230.672 832.291 230.384 832.651 229.796L833.539 230.3C832.951 231.2 832.075 231.656 830.899 231.656C829.951 231.656 829.171 231.356 828.571 230.768C827.983 230.168 827.683 229.412 827.683 228.5C827.683 227.6 827.971 226.844 828.559 226.244C829.147 225.644 829.903 225.344 830.827 225.344C831.703 225.344 832.423 225.656 832.975 226.28C833.539 226.892 833.815 227.636 833.815 228.512C833.815 228.668 833.803 228.824 833.779 228.98ZM830.827 226.328C829.711 226.328 828.931 227.012 828.751 228.068H832.759C832.579 226.928 831.787 226.328 830.827 226.328ZM836.059 225.5V226.508C836.407 225.764 837.031 225.392 837.931 225.392V226.484C837.415 226.46 836.983 226.592 836.611 226.892C836.239 227.192 836.059 227.66 836.059 228.32V231.5H835.015V225.5H836.059ZM844.384 228.98H839.356C839.56 230.048 840.388 230.672 841.528 230.672C842.32 230.672 842.896 230.384 843.256 229.796L844.144 230.3C843.556 231.2 842.68 231.656 841.504 231.656C840.556 231.656 839.776 231.356 839.176 230.768C838.588 230.168 838.288 229.412 838.288 228.5C838.288 227.6 838.576 226.844 839.164 226.244C839.752 225.644 840.508 225.344 841.432 225.344C842.308 225.344 843.028 225.656 843.58 226.28C844.144 226.892 844.42 227.636 844.42 228.512C844.42 228.668 844.408 228.824 844.384 228.98ZM841.432 226.328C840.316 226.328 839.536 227.012 839.356 228.068H843.364C843.184 226.928 842.392 226.328 841.432 226.328Z" fill="#3284FF"/>
<rect x="738.5" y="205" width="177" height="47" rx="11.5" stroke="#3284FF"/>
<rect x="524" y="276.5" width="392" height="48" rx="24" fill="#005AE2"/>
<path d="M675.71 294.7H682.85V296.24H680.092V304.5H678.482V296.24H675.71V294.7ZM684.539 297.5V298.676C684.917 297.808 685.645 297.374 686.695 297.374V299.012C686.121 298.97 685.617 299.11 685.183 299.432C684.749 299.74 684.539 300.258 684.539 300.972V304.5H683.027V297.5H684.539ZM689.24 296.17C688.862 296.548 688.274 296.548 687.882 296.17C687.504 295.778 687.504 295.19 687.882 294.812C688.26 294.42 688.876 294.42 689.254 294.812C689.632 295.19 689.632 295.778 689.24 296.17ZM689.324 304.5H687.812V297.5H689.324V304.5ZM698.723 297.318C700.305 297.318 701.369 298.424 701.369 300.16V304.5H699.857V300.258C699.857 299.292 699.339 298.732 698.499 298.732C697.561 298.732 696.973 299.348 696.973 300.58V304.5H695.461V300.258C695.461 299.292 694.985 298.732 694.145 298.732C693.235 298.732 692.591 299.362 692.591 300.58V304.5H691.079V297.5H692.591V298.34C693.039 297.654 693.711 297.318 694.593 297.318C695.489 297.318 696.147 297.682 696.581 298.424C697.043 297.682 697.757 297.318 698.723 297.318ZM706.487 301.252V294.7H708.097V301.154C708.097 302.344 708.797 303.114 710.197 303.114C711.597 303.114 712.297 302.344 712.297 301.154V294.7H713.907V301.252C713.907 302.302 713.557 303.128 712.871 303.758C712.185 304.374 711.289 304.682 710.197 304.682C709.105 304.682 708.209 304.374 707.523 303.758C706.837 303.128 706.487 302.302 706.487 301.252ZM723.109 304.5H721.345L719.273 300.93H717.369V304.5H715.759V294.7H719.679C720.561 294.7 721.303 295.008 721.905 295.624C722.521 296.226 722.829 296.968 722.829 297.85C722.829 299.096 722.045 300.23 720.883 300.692L723.109 304.5ZM719.679 296.212H717.369V299.488H719.679C720.533 299.488 721.219 298.76 721.219 297.85C721.219 296.94 720.533 296.212 719.679 296.212ZM725.955 294.7V302.96H729.945V304.5H724.345V294.7H725.955Z" fill="white"/>
<path d="M749.459 296.316C749.44 296.542 749.112 296.599 749.006 296.395L748.438 295.298C748.402 295.227 748.327 295.179 748.242 295.173L746.935 295.078C746.692 295.06 746.631 294.756 746.85 294.658L748.032 294.131C748.108 294.097 748.16 294.027 748.166 293.949L748.268 292.735C748.287 292.51 748.615 292.453 748.721 292.656L749.289 293.753C749.326 293.825 749.401 293.872 749.485 293.878L750.793 293.973C751.035 293.991 751.097 294.295 750.877 294.393L749.695 294.92C749.619 294.955 749.568 295.024 749.561 295.103L749.459 296.316Z" fill="white"/>
<path d="M745.706 297.144C745.674 297.253 745.507 297.253 745.476 297.144L745.305 296.556C745.294 296.518 745.262 296.489 745.221 296.478L744.588 296.32C744.471 296.291 744.471 296.136 744.588 296.107L745.221 295.948C745.262 295.938 745.294 295.908 745.305 295.87L745.476 295.282C745.507 295.173 745.674 295.173 745.706 295.282L745.876 295.87C745.887 295.908 745.919 295.938 745.96 295.948L746.594 296.107C746.711 296.136 746.711 296.291 746.594 296.32L745.96 296.478C745.919 296.489 745.887 296.518 745.876 296.556L745.706 297.144Z" fill="white"/>
<path d="M747.888 300.52C747.856 300.629 747.689 300.629 747.658 300.52L747.487 299.932C747.476 299.894 747.444 299.864 747.403 299.854L746.77 299.696C746.652 299.667 746.652 299.512 746.77 299.482L747.403 299.324C747.444 299.314 747.476 299.284 747.487 299.246L747.658 298.658C747.689 298.549 747.856 298.549 747.888 298.658L748.058 299.246C748.069 299.284 748.101 299.314 748.142 299.324L748.775 299.482C748.893 299.512 748.893 299.667 748.775 299.696L748.142 299.854C748.101 299.864 748.069 299.894 748.058 299.932L747.888 300.52Z" fill="white"/>
<path d="M746.031 299.197C746.01 299.27 745.899 299.27 745.878 299.197L745.764 298.805C745.757 298.78 745.735 298.76 745.708 298.753L745.286 298.648C745.208 298.628 745.208 298.525 745.286 298.505L745.708 298.4C745.735 298.393 745.757 298.373 745.764 298.348L745.878 297.956C745.899 297.883 746.01 297.883 746.031 297.956L746.145 298.348C746.152 298.373 746.174 298.393 746.201 298.4L746.623 298.505C746.701 298.525 746.701 298.628 746.623 298.648L746.201 298.753C746.174 298.76 746.152 298.78 746.145 298.805L746.031 299.197Z" fill="white"/>
<path d="M751.122 297.847C751.101 297.919 750.99 297.919 750.969 297.847L750.855 297.455C750.848 297.429 750.826 297.41 750.799 297.403L750.377 297.297C750.299 297.278 750.299 297.174 750.377 297.155L750.799 297.049C750.826 297.042 750.848 297.023 750.855 296.997L750.969 296.605C750.99 296.533 751.101 296.533 751.122 296.605L751.236 296.997C751.243 297.023 751.264 297.042 751.292 297.049L751.714 297.155C751.792 297.174 751.792 297.278 751.714 297.297L751.292 297.403C751.264 297.41 751.243 297.429 751.236 297.455L751.122 297.847Z" fill="white"/>
<path d="M758.318 306.003L757.591 306.678M748.158 297.042L759.962 307.088C760.255 307.337 760.265 307.763 759.984 308.024V308.024C759.704 308.284 759.25 308.278 758.98 308.008C754.905 303.923 747.728 296.708 748.158 297.042Z" stroke="white"/>
<path d="M540.65 355.418C541.546 355.852 542.12 356.678 542.12 357.728C542.12 358.512 541.84 359.17 541.294 359.702C540.748 360.234 540.076 360.5 539.278 360.5H535.05V350.7H538.97C539.74 350.7 540.384 350.952 540.916 351.47C541.448 351.988 541.714 352.618 541.714 353.374C541.714 354.242 541.364 354.928 540.65 355.418ZM538.97 351.918H536.352V354.914H538.97C539.796 354.914 540.426 354.256 540.426 353.416C540.426 353.01 540.286 352.66 539.992 352.366C539.712 352.072 539.376 351.918 538.97 351.918ZM536.352 359.282H539.278C540.16 359.282 540.832 358.582 540.832 357.686C540.832 357.252 540.678 356.874 540.37 356.566C540.076 356.258 539.712 356.104 539.278 356.104H536.352V359.282ZM546.202 358.988L548.218 353.5H549.52L546.664 360.934C546.062 362.516 544.956 363.398 543.556 363.3V362.166C544.41 362.236 545.04 361.76 545.446 360.738L545.572 360.472L542.52 353.5H543.822L546.202 358.988ZM557.327 360.682C556.277 360.682 555.395 360.332 554.695 359.632C553.995 358.918 553.645 358.05 553.645 357C553.645 355.95 553.995 355.082 554.695 354.382C555.395 353.668 556.277 353.318 557.327 353.318C558.713 353.318 559.875 354.032 560.421 355.152L559.399 355.74C559.049 354.998 558.265 354.508 557.327 354.508C556.627 354.508 556.039 354.746 555.563 355.222C555.101 355.698 554.863 356.286 554.863 357C554.863 357.7 555.101 358.288 555.563 358.764C556.039 359.24 556.627 359.478 557.327 359.478C558.265 359.478 559.049 359.002 559.441 358.26L560.477 358.862C559.875 359.968 558.685 360.682 557.327 360.682ZM562.898 360.5H561.68V350.28H562.898V360.5ZM565.372 352.226C564.91 352.226 564.546 351.862 564.546 351.414C564.546 350.966 564.91 350.588 565.372 350.588C565.82 350.588 566.184 350.966 566.184 351.414C566.184 351.862 565.82 352.226 565.372 352.226ZM565.974 360.5H564.756V353.5H565.974V360.5ZM571.122 360.682C570.072 360.682 569.19 360.332 568.49 359.632C567.79 358.918 567.44 358.05 567.44 357C567.44 355.95 567.79 355.082 568.49 354.382C569.19 353.668 570.072 353.318 571.122 353.318C572.508 353.318 573.67 354.032 574.216 355.152L573.194 355.74C572.844 354.998 572.06 354.508 571.122 354.508C570.422 354.508 569.834 354.746 569.358 355.222C568.896 355.698 568.658 356.286 568.658 357C568.658 357.7 568.896 358.288 569.358 358.764C569.834 359.24 570.422 359.478 571.122 359.478C572.06 359.478 572.844 359.002 573.236 358.26L574.272 358.862C573.67 359.968 572.48 360.682 571.122 360.682ZM577.939 356.888L581.397 360.5H579.885L576.693 357.182V360.5H575.475V350.7H576.693V356.594L579.717 353.5H581.285L577.939 356.888ZM583.145 352.226C582.683 352.226 582.319 351.862 582.319 351.414C582.319 350.966 582.683 350.588 583.145 350.588C583.593 350.588 583.957 350.966 583.957 351.414C583.957 351.862 583.593 352.226 583.145 352.226ZM583.747 360.5H582.529V353.5H583.747V360.5ZM589.092 353.318C590.73 353.318 591.808 354.424 591.808 356.202V360.5H590.59V356.272C590.59 355.138 589.932 354.48 588.854 354.48C587.636 354.48 586.824 355.222 586.824 356.79V360.5H585.606V353.5H586.824V354.508C587.314 353.71 588.07 353.318 589.092 353.318ZM599.318 354.704V353.5H600.522V360.206C600.522 361.242 600.172 362.04 599.472 362.614C598.772 363.188 597.932 363.482 596.952 363.482C595.384 363.482 594.208 362.88 593.634 361.774L594.698 361.172C595.076 361.956 595.846 362.348 596.98 362.348C598.436 362.348 599.318 361.536 599.318 360.206V359.212C598.702 360.15 597.82 360.612 596.686 360.612C595.692 360.612 594.838 360.262 594.152 359.548C593.466 358.834 593.116 357.98 593.116 356.958C593.116 355.936 593.466 355.082 594.152 354.382C594.838 353.668 595.692 353.318 596.686 353.318C597.834 353.318 598.716 353.78 599.318 354.704ZM599.318 356.958C599.318 356.258 599.08 355.67 598.604 355.194C598.128 354.718 597.54 354.48 596.826 354.48C596.112 354.48 595.524 354.718 595.048 355.194C594.572 355.67 594.334 356.258 594.334 356.958C594.334 357.672 594.572 358.26 595.048 358.736C595.524 359.212 596.112 359.45 596.826 359.45C597.54 359.45 598.128 359.212 598.604 358.736C599.08 358.26 599.318 357.672 599.318 356.958ZM605.195 350.7H612.265V351.932H609.367V360.5H608.079V351.932H605.195V350.7ZM613.689 353.5V354.676C614.095 353.808 614.823 353.374 615.873 353.374V354.648C615.271 354.62 614.767 354.774 614.333 355.124C613.899 355.474 613.689 356.02 613.689 356.79V360.5H612.471V353.5H613.689ZM617.681 352.226C617.219 352.226 616.855 351.862 616.855 351.414C616.855 350.966 617.219 350.588 617.681 350.588C618.129 350.588 618.493 350.966 618.493 351.414C618.493 351.862 618.129 352.226 617.681 352.226ZM618.283 360.5H617.065V353.5H618.283V360.5ZM627.701 353.318C629.269 353.318 630.333 354.41 630.333 356.146V360.5H629.115V356.188C629.115 355.11 628.513 354.48 627.575 354.48C626.525 354.48 625.853 355.166 625.853 356.608V360.5H624.635V356.188C624.635 355.11 624.061 354.48 623.151 354.48C622.129 354.48 621.359 355.194 621.359 356.608V360.5H620.141V353.5H621.359V354.438C621.835 353.696 622.535 353.318 623.445 353.318C624.383 353.318 625.069 353.71 625.503 354.508C625.993 353.71 626.721 353.318 627.701 353.318ZM632.022 357.21V350.7H633.324V357.154C633.324 358.54 634.178 359.408 635.704 359.408C637.23 359.408 638.084 358.54 638.084 357.154V350.7H639.372V357.21C639.372 358.26 639.036 359.114 638.35 359.744C637.664 360.374 636.782 360.682 635.704 360.682C634.626 360.682 633.73 360.374 633.044 359.744C632.358 359.114 632.022 358.26 632.022 357.21ZM648.615 360.5H647.173L644.975 356.748H642.665V360.5H641.363V350.7H645.283C646.123 350.7 646.837 350.994 647.439 351.596C648.041 352.184 648.335 352.898 648.335 353.738C648.335 354.368 648.139 354.956 647.761 355.474C647.382 355.992 646.907 356.37 646.305 356.58L648.615 360.5ZM645.283 351.918H642.665V355.572H645.283C645.773 355.572 646.179 355.39 646.515 355.04C646.865 354.676 647.033 354.242 647.033 353.738C647.033 353.234 646.865 352.8 646.515 352.45C646.179 352.1 645.773 351.918 645.283 351.918ZM651.223 350.7V359.268H655.451V360.5H649.921V350.7H651.223ZM657.489 359.058H658.889L657.979 362.46H656.929L657.489 359.058ZM664.236 360.5V350.7H665.538V360.5H664.236ZM676.81 354.704V353.5H678.028V360.5H676.81V359.296C676.208 360.22 675.326 360.682 674.164 360.682C673.184 360.682 672.344 360.332 671.658 359.618C670.972 358.904 670.622 358.022 670.622 357C670.622 355.978 670.972 355.11 671.658 354.396C672.344 353.682 673.184 353.318 674.164 353.318C675.326 353.318 676.208 353.78 676.81 354.704ZM674.318 359.506C675.032 359.506 675.62 359.268 676.096 358.792C676.572 358.302 676.81 357.714 676.81 357C676.81 356.286 676.572 355.698 676.096 355.222C675.62 354.732 675.032 354.494 674.318 354.494C673.618 354.494 673.03 354.732 672.554 355.222C672.078 355.698 671.84 356.286 671.84 357C671.84 357.714 672.078 358.302 672.554 358.792C673.03 359.268 673.618 359.506 674.318 359.506ZM685.683 354.704V353.5H686.887V360.206C686.887 361.242 686.537 362.04 685.837 362.614C685.137 363.188 684.297 363.482 683.317 363.482C681.749 363.482 680.573 362.88 679.999 361.774L681.063 361.172C681.441 361.956 682.211 362.348 683.345 362.348C684.801 362.348 685.683 361.536 685.683 360.206V359.212C685.067 360.15 684.185 360.612 683.051 360.612C682.057 360.612 681.203 360.262 680.517 359.548C679.831 358.834 679.481 357.98 679.481 356.958C679.481 355.936 679.831 355.082 680.517 354.382C681.203 353.668 682.057 353.318 683.051 353.318C684.199 353.318 685.081 353.78 685.683 354.704ZM685.683 356.958C685.683 356.258 685.445 355.67 684.969 355.194C684.493 354.718 683.905 354.48 683.191 354.48C682.477 354.48 681.889 354.718 681.413 355.194C680.937 355.67 680.699 356.258 680.699 356.958C680.699 357.672 680.937 358.26 681.413 358.736C681.889 359.212 682.477 359.45 683.191 359.45C683.905 359.45 684.493 359.212 684.969 358.736C685.445 358.26 685.683 357.672 685.683 356.958ZM689.951 353.5V354.676C690.357 353.808 691.085 353.374 692.135 353.374V354.648C691.533 354.62 691.029 354.774 690.595 355.124C690.161 355.474 689.951 356.02 689.951 356.79V360.5H688.733V353.5H689.951ZM699.664 357.56H693.798C694.036 358.806 695.002 359.534 696.332 359.534C697.256 359.534 697.928 359.198 698.348 358.512L699.384 359.1C698.698 360.15 697.676 360.682 696.304 360.682C695.198 360.682 694.288 360.332 693.588 359.646C692.902 358.946 692.552 358.064 692.552 357C692.552 355.95 692.888 355.068 693.574 354.368C694.26 353.668 695.142 353.318 696.22 353.318C697.242 353.318 698.082 353.682 698.726 354.41C699.384 355.124 699.706 355.992 699.706 357.014C699.706 357.196 699.692 357.378 699.664 357.56ZM696.22 354.466C694.918 354.466 694.008 355.264 693.798 356.496H698.474C698.264 355.166 697.34 354.466 696.22 354.466ZM707.812 357.56H701.946C702.184 358.806 703.15 359.534 704.48 359.534C705.404 359.534 706.076 359.198 706.496 358.512L707.532 359.1C706.846 360.15 705.824 360.682 704.452 360.682C703.346 360.682 702.436 360.332 701.736 359.646C701.05 358.946 700.7 358.064 700.7 357C700.7 355.95 701.036 355.068 701.722 354.368C702.408 353.668 703.29 353.318 704.368 353.318C705.39 353.318 706.23 353.682 706.874 354.41C707.532 355.124 707.854 355.992 707.854 357.014C707.854 357.196 707.84 357.378 707.812 357.56ZM704.368 354.466C703.066 354.466 702.156 355.264 701.946 356.496H706.622C706.412 355.166 705.488 354.466 704.368 354.466ZM716.562 353.5V354.676H714.7V358.47C714.7 359.548 715.316 359.464 716.562 359.408V360.5C714.434 360.78 713.482 360.206 713.482 358.47V354.676H712.096V353.5H713.482V351.904L714.7 351.54V353.5H716.562ZM723.557 359.618C722.843 360.332 721.961 360.682 720.939 360.682C719.917 360.682 719.035 360.332 718.321 359.618C717.607 358.904 717.257 358.036 717.257 357C717.257 355.964 717.607 355.096 718.321 354.382C719.035 353.668 719.917 353.318 720.939 353.318C721.961 353.318 722.843 353.668 723.557 354.382C724.271 355.096 724.635 355.964 724.635 357C724.635 358.036 724.271 358.904 723.557 359.618ZM720.939 359.492C721.639 359.492 722.227 359.254 722.703 358.778C723.179 358.302 723.417 357.714 723.417 357C723.417 356.286 723.179 355.698 722.703 355.222C722.227 354.746 721.639 354.508 720.939 354.508C720.253 354.508 719.665 354.746 719.189 355.222C718.713 355.698 718.475 356.286 718.475 357C718.475 357.714 718.713 358.302 719.189 358.778C719.665 359.254 720.253 359.492 720.939 359.492ZM733.378 353.5V354.676H731.516V358.47C731.516 359.548 732.132 359.464 733.378 359.408V360.5C731.25 360.78 730.298 360.206 730.298 358.47V354.676H728.912V353.5H730.298V351.904L731.516 351.54V353.5H733.378ZM738.306 353.318C739.944 353.318 741.022 354.424 741.022 356.202V360.5H739.804V356.272C739.804 355.138 739.146 354.48 738.068 354.48C736.85 354.48 736.038 355.222 736.038 356.79V360.5H734.82V350.7H736.038V354.508C736.528 353.71 737.284 353.318 738.306 353.318ZM749.443 357.56H743.577C743.815 358.806 744.781 359.534 746.111 359.534C747.035 359.534 747.707 359.198 748.127 358.512L749.163 359.1C748.477 360.15 747.455 360.682 746.083 360.682C744.977 360.682 744.067 360.332 743.367 359.646C742.681 358.946 742.331 358.064 742.331 357C742.331 355.95 742.667 355.068 743.353 354.368C744.039 353.668 744.921 353.318 745.999 353.318C747.021 353.318 747.861 353.682 748.505 354.41C749.163 355.124 749.485 355.992 749.485 357.014C749.485 357.196 749.471 357.378 749.443 357.56ZM745.999 354.466C744.697 354.466 743.787 355.264 743.577 356.496H748.253C748.043 355.166 747.119 354.466 745.999 354.466Z" fill="#4991FF"/>
<path d="M753.643 350.7H760.853V352.548H758.207V360.5H756.275V352.548H753.643V350.7ZM767.38 357.742H762.102C762.34 358.624 762.998 359.058 764.076 359.058C764.762 359.058 765.294 358.82 765.644 358.358L767.1 359.198C766.414 360.192 765.392 360.696 764.048 360.696C762.886 360.696 761.962 360.346 761.262 359.646C760.562 358.946 760.212 358.064 760.212 357C760.212 355.95 760.562 355.068 761.248 354.368C761.934 353.654 762.83 353.304 763.908 353.304C764.93 353.304 765.784 353.654 766.442 354.368C767.114 355.082 767.45 355.95 767.45 357C767.45 357.238 767.422 357.476 767.38 357.742ZM762.074 356.342H765.644C765.434 355.39 764.734 354.928 763.908 354.928C762.942 354.928 762.284 355.446 762.074 356.342ZM770.517 353.5V354.704C770.853 353.808 771.693 353.36 772.645 353.36V355.376C772.099 355.306 771.595 355.418 771.161 355.712C770.727 356.006 770.517 356.482 770.517 357.154V360.5H768.711V353.5H770.517ZM781.443 353.304C783.053 353.304 784.089 354.438 784.089 356.188V360.5H782.283V356.314C782.283 355.474 781.849 354.984 781.107 354.984C780.281 354.984 779.805 355.544 779.805 356.566V360.5H777.999V356.314C777.999 355.474 777.565 354.984 776.823 354.984C776.025 354.984 775.507 355.544 775.507 356.566V360.5H773.701V353.5H775.507V354.242C775.927 353.612 776.571 353.304 777.453 353.304C778.307 353.304 778.951 353.64 779.357 354.312C779.819 353.64 780.519 353.304 781.443 353.304ZM787.289 355.488C787.289 355.866 787.849 356.076 788.563 356.258C789.585 356.468 790.915 356.958 790.901 358.456C790.901 359.17 790.635 359.73 790.089 360.122C789.557 360.5 788.885 360.696 788.087 360.696C786.645 360.696 785.665 360.136 785.147 359.03L786.715 358.148C786.925 358.75 787.373 359.058 788.087 359.058C788.731 359.058 789.053 358.862 789.053 358.456C789.053 358.078 788.493 357.868 787.779 357.686C786.743 357.42 785.441 356.986 785.441 355.53C785.441 354.844 785.693 354.298 786.197 353.906C786.715 353.5 787.345 353.304 788.101 353.304C789.235 353.304 790.215 353.836 790.761 354.788L789.221 355.628C788.997 355.152 788.619 354.914 788.101 354.914C787.639 354.914 787.289 355.138 787.289 355.488ZM801.595 359.632C800.881 360.346 799.999 360.696 798.963 360.696C797.927 360.696 797.045 360.346 796.331 359.632C795.617 358.918 795.267 358.036 795.267 357C795.267 355.964 795.617 355.096 796.331 354.382C797.045 353.668 797.927 353.304 798.963 353.304C799.999 353.304 800.881 353.668 801.595 354.382C802.309 355.096 802.673 355.964 802.673 357C802.673 358.036 802.309 358.918 801.595 359.632ZM797.605 358.386C797.969 358.75 798.417 358.932 798.963 358.932C799.509 358.932 799.957 358.75 800.321 358.386C800.685 358.022 800.867 357.56 800.867 357C800.867 356.44 800.685 355.978 800.321 355.614C799.957 355.25 799.509 355.068 798.963 355.068C798.417 355.068 797.969 355.25 797.605 355.614C797.255 355.978 797.073 356.44 797.073 357C797.073 357.56 797.255 358.022 797.605 358.386ZM807.49 350.504V352.24C806.496 352.17 806.006 352.562 806.006 353.43V353.5H807.49V355.236H806.006V360.5H804.2V355.236H803.192V353.5H804.2V353.43C804.2 351.456 805.306 350.378 807.49 350.504ZM815.248 360.696C813.302 360.696 811.944 359.772 811.398 358.274L813.05 357.308C813.428 358.302 814.184 358.806 815.304 358.806C816.382 358.806 816.872 358.372 816.872 357.77C816.872 357.42 816.718 357.154 816.41 356.972C816.102 356.776 815.556 356.566 814.758 356.342C813.876 356.076 813.344 355.866 812.728 355.432C812.126 354.984 811.804 354.312 811.804 353.416C811.804 352.534 812.112 351.82 812.742 351.302C813.372 350.77 814.142 350.504 815.024 350.504C816.606 350.504 817.852 351.316 818.524 352.702L816.9 353.64C816.508 352.8 815.878 352.38 815.024 352.38C814.226 352.38 813.736 352.786 813.736 353.36C813.736 353.668 813.862 353.92 814.114 354.116C814.38 354.298 814.87 354.508 815.598 354.732L816.27 354.956C816.424 354.998 816.634 355.082 816.9 355.194C817.166 355.292 817.376 355.39 817.516 355.488C817.81 355.67 818.258 356.02 818.44 356.356C818.65 356.692 818.804 357.182 818.804 357.742C818.804 358.652 818.468 359.366 817.81 359.898C817.152 360.43 816.298 360.696 815.248 360.696ZM826.976 357.742H821.698C821.936 358.624 822.594 359.058 823.672 359.058C824.358 359.058 824.89 358.82 825.24 358.358L826.696 359.198C826.01 360.192 824.988 360.696 823.644 360.696C822.482 360.696 821.558 360.346 820.858 359.646C820.158 358.946 819.808 358.064 819.808 357C819.808 355.95 820.158 355.068 820.844 354.368C821.53 353.654 822.426 353.304 823.504 353.304C824.526 353.304 825.38 353.654 826.038 354.368C826.71 355.082 827.046 355.95 827.046 357C827.046 357.238 827.018 357.476 826.976 357.742ZM821.67 356.342H825.24C825.03 355.39 824.33 354.928 823.504 354.928C822.538 354.928 821.88 355.446 821.67 356.342ZM830.112 353.5V354.704C830.448 353.808 831.288 353.36 832.24 353.36V355.376C831.694 355.306 831.19 355.418 830.756 355.712C830.322 356.006 830.112 356.482 830.112 357.154V360.5H828.306V353.5H830.112ZM836.195 358.4L837.903 353.5H839.891L837.231 360.5H835.173L832.513 353.5H834.501L836.195 358.4ZM841.658 352.66C841.056 352.66 840.552 352.156 840.552 351.554C840.552 350.952 841.056 350.434 841.658 350.434C842.274 350.434 842.778 350.952 842.778 351.554C842.778 352.156 842.274 352.66 841.658 352.66ZM842.568 360.5H840.762V353.5H842.568V360.5ZM847.553 360.696C846.503 360.696 845.621 360.346 844.907 359.632C844.207 358.918 843.857 358.05 843.857 357C843.857 355.95 844.207 355.082 844.907 354.368C845.621 353.654 846.503 353.304 847.553 353.304C848.911 353.304 850.115 354.004 850.689 355.11L849.135 356.02C848.855 355.446 848.253 355.082 847.539 355.082C846.461 355.082 845.663 355.88 845.663 357C845.663 357.546 845.845 358.008 846.195 358.372C846.545 358.722 846.993 358.904 847.539 358.904C848.267 358.904 848.869 358.554 849.149 357.98L850.717 358.876C850.101 359.982 848.911 360.696 847.553 360.696ZM858.366 357.742H853.088C853.326 358.624 853.984 359.058 855.062 359.058C855.748 359.058 856.28 358.82 856.63 358.358L858.086 359.198C857.4 360.192 856.378 360.696 855.034 360.696C853.872 360.696 852.948 360.346 852.248 359.646C851.548 358.946 851.198 358.064 851.198 357C851.198 355.95 851.548 355.068 852.234 354.368C852.92 353.654 853.816 353.304 854.894 353.304C855.916 353.304 856.77 353.654 857.428 354.368C858.1 355.082 858.436 355.95 858.436 357C858.436 357.238 858.408 357.476 858.366 357.742ZM853.06 356.342H856.63C856.42 355.39 855.72 354.928 854.894 354.928C853.928 354.928 853.27 355.446 853.06 356.342ZM859.557 358.568H861.517L860.467 362.46H858.997L859.557 358.568ZM534.91 370.7H538.564C539.502 370.7 540.3 371.022 540.944 371.652C541.588 372.282 541.91 373.066 541.91 373.99C541.91 374.914 541.588 375.698 540.944 376.328C540.3 376.958 539.502 377.28 538.564 377.28H536.842V380.5H534.91V370.7ZM536.842 375.474H538.564C539.39 375.474 539.992 374.83 539.992 373.99C539.992 373.136 539.39 372.506 538.564 372.506H536.842V375.474ZM544.739 373.5V374.704C545.075 373.808 545.915 373.36 546.867 373.36V375.376C546.321 375.306 545.817 375.418 545.383 375.712C544.949 376.006 544.739 376.482 544.739 377.154V380.5H542.933V373.5H544.739ZM548.82 372.66C548.218 372.66 547.714 372.156 547.714 371.554C547.714 370.952 548.218 370.434 548.82 370.434C549.436 370.434 549.94 370.952 549.94 371.554C549.94 372.156 549.436 372.66 548.82 372.66ZM549.73 380.5H547.924V373.5H549.73V380.5ZM554.281 378.4L555.989 373.5H557.977L555.317 380.5H553.259L550.599 373.5H552.587L554.281 378.4ZM563.894 374.326V373.5H565.7V380.5H563.894V379.674C563.348 380.36 562.592 380.696 561.612 380.696C560.674 380.696 559.876 380.346 559.204 379.632C558.546 378.918 558.21 378.036 558.21 377C558.21 375.964 558.546 375.096 559.204 374.382C559.876 373.668 560.674 373.304 561.612 373.304C562.592 373.304 563.348 373.64 563.894 374.326ZM560.562 378.428C560.926 378.792 561.388 378.974 561.948 378.974C562.508 378.974 562.97 378.792 563.334 378.428C563.712 378.05 563.894 377.574 563.894 377C563.894 376.426 563.712 375.95 563.334 375.586C562.97 375.208 562.508 375.026 561.948 375.026C561.388 375.026 560.926 375.208 560.562 375.586C560.198 375.95 560.016 376.426 560.016 377C560.016 377.574 560.198 378.05 560.562 378.428ZM570.67 380.696C569.62 380.696 568.738 380.346 568.024 379.632C567.324 378.918 566.974 378.05 566.974 377C566.974 375.95 567.324 375.082 568.024 374.368C568.738 373.654 569.62 373.304 570.67 373.304C572.028 373.304 573.232 374.004 573.806 375.11L572.252 376.02C571.972 375.446 571.37 375.082 570.656 375.082C569.578 375.082 568.78 375.88 568.78 377C568.78 377.546 568.962 378.008 569.312 378.372C569.662 378.722 570.11 378.904 570.656 378.904C571.384 378.904 571.986 378.554 572.266 377.98L573.834 378.876C573.218 379.982 572.028 380.696 570.67 380.696ZM577.854 378.204L579.408 373.5H581.34L578.792 380.5C578.064 382.516 576.888 383.398 575.096 383.3V381.62C576.062 381.634 576.594 381.228 576.93 380.276L574.06 373.5H576.034L577.854 378.204ZM585.783 370.7H589.437C590.375 370.7 591.173 371.022 591.817 371.652C592.461 372.282 592.783 373.066 592.783 373.99C592.783 374.914 592.461 375.698 591.817 376.328C591.173 376.958 590.375 377.28 589.437 377.28H587.715V380.5H585.783V370.7ZM587.715 375.474H589.437C590.263 375.474 590.865 374.83 590.865 373.99C590.865 373.136 590.263 372.506 589.437 372.506H587.715V375.474ZM599.456 379.632C598.742 380.346 597.86 380.696 596.824 380.696C595.788 380.696 594.906 380.346 594.192 379.632C593.478 378.918 593.128 378.036 593.128 377C593.128 375.964 593.478 375.096 594.192 374.382C594.906 373.668 595.788 373.304 596.824 373.304C597.86 373.304 598.742 373.668 599.456 374.382C600.17 375.096 600.534 375.964 600.534 377C600.534 378.036 600.17 378.918 599.456 379.632ZM595.466 378.386C595.83 378.75 596.278 378.932 596.824 378.932C597.37 378.932 597.818 378.75 598.182 378.386C598.546 378.022 598.728 377.56 598.728 377C598.728 376.44 598.546 375.978 598.182 375.614C597.818 375.25 597.37 375.068 596.824 375.068C596.278 375.068 595.83 375.25 595.466 375.614C595.116 375.978 594.934 376.44 594.934 377C594.934 377.56 595.116 378.022 595.466 378.386ZM603.611 380.5H601.805V370.28H603.611V380.5ZM606.16 372.66C605.558 372.66 605.054 372.156 605.054 371.554C605.054 370.952 605.558 370.434 606.16 370.434C606.776 370.434 607.28 370.952 607.28 371.554C607.28 372.156 606.776 372.66 606.16 372.66ZM607.07 380.5H605.264V373.5H607.07V380.5ZM612.054 380.696C611.004 380.696 610.122 380.346 609.408 379.632C608.708 378.918 608.358 378.05 608.358 377C608.358 375.95 608.708 375.082 609.408 374.368C610.122 373.654 611.004 373.304 612.054 373.304C613.412 373.304 614.616 374.004 615.19 375.11L613.636 376.02C613.356 375.446 612.754 375.082 612.04 375.082C610.962 375.082 610.164 375.88 610.164 377C610.164 377.546 610.346 378.008 610.696 378.372C611.046 378.722 611.494 378.904 612.04 378.904C612.768 378.904 613.37 378.554 613.65 377.98L615.218 378.876C614.602 379.982 613.412 380.696 612.054 380.696ZM619.238 378.204L620.792 373.5H622.724L620.176 380.5C619.448 382.516 618.272 383.398 616.48 383.3V381.62C617.446 381.634 617.978 381.228 618.314 380.276L615.444 373.5H617.418L619.238 378.204ZM632.978 374.704V373.5H634.196V380.5H632.978V379.296C632.376 380.22 631.494 380.682 630.332 380.682C629.352 380.682 628.512 380.332 627.826 379.618C627.14 378.904 626.79 378.022 626.79 377C626.79 375.978 627.14 375.11 627.826 374.396C628.512 373.682 629.352 373.318 630.332 373.318C631.494 373.318 632.376 373.78 632.978 374.704ZM630.486 379.506C631.2 379.506 631.788 379.268 632.264 378.792C632.74 378.302 632.978 377.714 632.978 377C632.978 376.286 632.74 375.698 632.264 375.222C631.788 374.732 631.2 374.494 630.486 374.494C629.786 374.494 629.198 374.732 628.722 375.222C628.246 375.698 628.008 376.286 628.008 377C628.008 377.714 628.246 378.302 628.722 378.792C629.198 379.268 629.786 379.506 630.486 379.506ZM639.527 373.318C641.165 373.318 642.243 374.424 642.243 376.202V380.5H641.025V376.272C641.025 375.138 640.367 374.48 639.289 374.48C638.071 374.48 637.259 375.222 637.259 376.79V380.5H636.041V373.5H637.259V374.508C637.749 373.71 638.505 373.318 639.527 373.318ZM649.74 374.704V370.7H650.958V380.5H649.74V379.296C649.138 380.22 648.256 380.682 647.094 380.682C646.114 380.682 645.274 380.332 644.588 379.618C643.902 378.904 643.552 378.022 643.552 377C643.552 375.978 643.902 375.11 644.588 374.396C645.274 373.682 646.114 373.318 647.094 373.318C648.256 373.318 649.138 373.78 649.74 374.704ZM647.248 379.506C647.962 379.506 648.55 379.268 649.026 378.792C649.502 378.302 649.74 377.714 649.74 377C649.74 376.286 649.502 375.698 649.026 375.222C648.55 374.732 647.962 374.494 647.248 374.494C646.548 374.494 645.96 374.732 645.484 375.222C645.008 375.698 644.77 376.286 644.77 377C644.77 377.714 645.008 378.302 645.484 378.792C645.96 379.268 646.548 379.506 647.248 379.506ZM656.303 377.21V370.7H657.605V377.154C657.605 378.54 658.459 379.408 659.985 379.408C661.511 379.408 662.365 378.54 662.365 377.154V370.7H663.653V377.21C663.653 378.26 663.317 379.114 662.631 379.744C661.945 380.374 661.063 380.682 659.985 380.682C658.907 380.682 658.011 380.374 657.325 379.744C656.639 379.114 656.303 378.26 656.303 377.21ZM666.499 375.39C666.499 375.936 667.115 376.23 667.885 376.44C668.977 376.678 670.433 377.084 670.419 378.582C670.419 379.212 670.167 379.73 669.677 380.108C669.187 380.486 668.571 380.682 667.801 380.682C666.443 380.682 665.421 380.038 665.015 379.044L666.065 378.442C666.289 379.114 666.947 379.534 667.801 379.534C668.599 379.534 669.187 379.24 669.187 378.582C669.187 378.036 668.571 377.728 667.801 377.546C666.695 377.252 665.267 376.888 665.267 375.404C665.267 374.802 665.505 374.298 665.967 373.906C666.443 373.514 667.031 373.318 667.745 373.318C668.879 373.318 669.817 373.864 670.265 374.774L669.243 375.348C668.991 374.746 668.487 374.452 667.745 374.452C667.059 374.452 666.499 374.788 666.499 375.39ZM678.39 377.56H672.524C672.762 378.806 673.728 379.534 675.058 379.534C675.982 379.534 676.654 379.198 677.074 378.512L678.11 379.1C677.424 380.15 676.402 380.682 675.03 380.682C673.924 380.682 673.014 380.332 672.314 379.646C671.628 378.946 671.278 378.064 671.278 377C671.278 375.95 671.614 375.068 672.3 374.368C672.986 373.668 673.868 373.318 674.946 373.318C675.968 373.318 676.808 373.682 677.452 374.41C678.11 375.124 678.432 375.992 678.432 377.014C678.432 377.196 678.418 377.378 678.39 377.56ZM674.946 374.466C673.644 374.466 672.734 375.264 672.524 376.496H677.2C676.99 375.166 676.066 374.466 674.946 374.466ZM689.24 379.618C688.526 380.332 687.644 380.682 686.622 380.682C685.6 380.682 684.718 380.332 684.004 379.618C683.29 378.904 682.94 378.036 682.94 377C682.94 375.964 683.29 375.096 684.004 374.382C684.718 373.668 685.6 373.318 686.622 373.318C687.644 373.318 688.526 373.668 689.24 374.382C689.954 375.096 690.318 375.964 690.318 377C690.318 378.036 689.954 378.904 689.24 379.618ZM686.622 379.492C687.322 379.492 687.91 379.254 688.386 378.778C688.862 378.302 689.1 377.714 689.1 377C689.1 376.286 688.862 375.698 688.386 375.222C687.91 374.746 687.322 374.508 686.622 374.508C685.936 374.508 685.348 374.746 684.872 375.222C684.396 375.698 684.158 376.286 684.158 377C684.158 377.714 684.396 378.302 684.872 378.778C685.348 379.254 685.936 379.492 686.622 379.492ZM695.092 370.518V371.694C693.86 371.596 693.244 372.128 693.244 373.29V373.5H695.092V374.676H693.244V380.5H692.026V374.676H690.906V373.5H692.026V373.29C692.026 371.4 693.118 370.392 695.092 370.518ZM704.252 380.682C702.768 380.682 701.536 380.192 700.57 379.212C699.604 378.232 699.128 377.028 699.128 375.6C699.128 374.172 699.604 372.968 700.57 371.988C701.536 371.008 702.768 370.518 704.252 370.518C706.044 370.518 707.64 371.442 708.48 372.898L707.346 373.556C706.786 372.478 705.596 371.778 704.252 371.778C703.118 371.778 702.194 372.142 701.48 372.87C700.766 373.598 700.416 374.508 700.416 375.6C700.416 376.678 700.766 377.588 701.48 378.316C702.194 379.044 703.118 379.408 704.252 379.408C705.596 379.408 706.786 378.708 707.346 377.644L708.48 378.288C708.074 379.016 707.486 379.604 706.73 380.038C705.974 380.472 705.148 380.682 704.252 380.682ZM715.709 379.618C714.995 380.332 714.113 380.682 713.091 380.682C712.069 380.682 711.187 380.332 710.473 379.618C709.759 378.904 709.409 378.036 709.409 377C709.409 375.964 709.759 375.096 710.473 374.382C711.187 373.668 712.069 373.318 713.091 373.318C714.113 373.318 714.995 373.668 715.709 374.382C716.423 375.096 716.787 375.964 716.787 377C716.787 378.036 716.423 378.904 715.709 379.618ZM713.091 379.492C713.791 379.492 714.379 379.254 714.855 378.778C715.331 378.302 715.569 377.714 715.569 377C715.569 376.286 715.331 375.698 714.855 375.222C714.379 374.746 713.791 374.508 713.091 374.508C712.405 374.508 711.817 374.746 711.341 375.222C710.865 375.698 710.627 376.286 710.627 377C710.627 377.714 710.865 378.302 711.341 378.778C711.817 379.254 712.405 379.492 713.091 379.492ZM724.131 379.618C723.417 380.332 722.535 380.682 721.513 380.682C720.491 380.682 719.609 380.332 718.895 379.618C718.181 378.904 717.831 378.036 717.831 377C717.831 375.964 718.181 375.096 718.895 374.382C719.609 373.668 720.491 373.318 721.513 373.318C722.535 373.318 723.417 373.668 724.131 374.382C724.845 375.096 725.209 375.964 725.209 377C725.209 378.036 724.845 378.904 724.131 379.618ZM721.513 379.492C722.213 379.492 722.801 379.254 723.277 378.778C723.753 378.302 723.991 377.714 723.991 377C723.991 376.286 723.753 375.698 723.277 375.222C722.801 374.746 722.213 374.508 721.513 374.508C720.827 374.508 720.239 374.746 719.763 375.222C719.287 375.698 719.049 376.286 719.049 377C719.049 377.714 719.287 378.302 719.763 378.778C720.239 379.254 720.827 379.492 721.513 379.492ZM729.109 376.888L732.567 380.5H731.055L727.863 377.182V380.5H726.645V370.7H727.863V376.594L730.887 373.5H732.455L729.109 376.888ZM734.315 372.226C733.853 372.226 733.489 371.862 733.489 371.414C733.489 370.966 733.853 370.588 734.315 370.588C734.763 370.588 735.127 370.966 735.127 371.414C735.127 371.862 734.763 372.226 734.315 372.226ZM734.917 380.5H733.699V373.5H734.917V380.5ZM743.496 377.56H737.63C737.868 378.806 738.834 379.534 740.164 379.534C741.088 379.534 741.76 379.198 742.18 378.512L743.216 379.1C742.53 380.15 741.508 380.682 740.136 380.682C739.03 380.682 738.12 380.332 737.42 379.646C736.734 378.946 736.384 378.064 736.384 377C736.384 375.95 736.72 375.068 737.406 374.368C738.092 373.668 738.974 373.318 740.052 373.318C741.074 373.318 741.914 373.682 742.558 374.41C743.216 375.124 743.538 375.992 743.538 377.014C743.538 377.196 743.524 377.378 743.496 377.56ZM740.052 374.466C738.75 374.466 737.84 375.264 737.63 376.496H742.306C742.096 375.166 741.172 374.466 740.052 374.466ZM745.714 375.39C745.714 375.936 746.33 376.23 747.1 376.44C748.192 376.678 749.648 377.084 749.634 378.582C749.634 379.212 749.382 379.73 748.892 380.108C748.402 380.486 747.786 380.682 747.016 380.682C745.658 380.682 744.636 380.038 744.23 379.044L745.28 378.442C745.504 379.114 746.162 379.534 747.016 379.534C747.814 379.534 748.402 379.24 748.402 378.582C748.402 378.036 747.786 377.728 747.016 377.546C745.91 377.252 744.482 376.888 744.482 375.404C744.482 374.802 744.72 374.298 745.182 373.906C745.658 373.514 746.246 373.318 746.96 373.318C748.094 373.318 749.032 373.864 749.48 374.774L748.458 375.348C748.206 374.746 747.702 374.452 746.96 374.452C746.274 374.452 745.714 374.788 745.714 375.39ZM751.696 380.654C751.192 380.654 750.786 380.248 750.786 379.744C750.786 379.24 751.192 378.834 751.696 378.834C752.214 378.834 752.606 379.24 752.606 379.744C752.606 380.248 752.214 380.654 751.696 380.654Z" fill="#3284FF"/>
<rect x="482.5" y="84" width="475" height="354" rx="11.5" stroke="white" stroke-opacity="0.5" style="mix-blend-mode:overlay"/>
</g>
</g>
<defs>
<filter id="filter0_bd_113_271" x="470" y="71.5" width="500" height="379" filterUnits="userSpaceOnUse" color-interpolation-filters="sRGB">
<feFlood flood-opacity="0" result="BackgroundImageFix"/>
<feGaussianBlur in="BackgroundImageFix" stdDeviation="6"/>
<feComposite in2="SourceAlpha" operator="in" result="effect1_backgroundBlur_113_271"/>
<feColorMatrix in="SourceAlpha" type="matrix" values="0 0 0 0 0 0 0 0 0 0 0 0 0 0 0 0 0 0 127 0" result="hardAlpha"/>
<feOffset dy="4"/>
<feGaussianBlur stdDeviation="4"/>
<feComposite in2="hardAlpha" operator="out"/>
<feColorMatrix type="matrix" values="0 0 0 0 0.391667 0 0 0 0 0.633923 0 0 0 0 1 0 0 0 0.18 0"/>
<feBlend mode="normal" in2="effect1_backgroundBlur_113_271" result="effect2_dropShadow_113_271"/>
<feBlend mode="normal" in="SourceGraphic" in2="effect2_dropShadow_113_271" result="shape"/>
</filter>
<linearGradient id="paint0_linear_113_271" x1="720" y1="0" x2="720" y2="523" gradientUnits="userSpaceOnUse">
<stop offset="0.9999" stop-color="#1E3448"/>
<stop offset="1" stop-color="#1E3448" stop-opacity="0"/>
</linearGradient>
<linearGradient id="paint1_linear_113_271" x1="1498.68" y1="1193.08" x2="946.248" y2="1068.96" gradientUnits="userSpaceOnUse">
<stop stop-color="#9EE6F7" stop-opacity="0"/>
<stop offset="1" stop-color="#9EE6F7" stop-opacity="0.46"/>
</linearGradient>
<linearGradient id="paint2_linear_113_271" x1="1510.69" y1="1222.43" x2="1036.28" y2="1153.28" gradientUnits="userSpaceOnUse">
<stop stop-color="#9EE6F7" stop-opacity="0"/>
<stop offset="1" stop-color="#9EE6F7" stop-opacity="0.46"/>
</linearGradient>
<linearGradient id="paint3_linear_113_271" x1="1537.32" y1="1420.47" x2="1060.14" y2="1274.27" gradientUnits="userSpaceOnUse">
<stop stop-color="#005AE2"/>
<stop offset="1" stop-color="#73E6FF" stop-opacity="0.38"/>
</linearGradient>
<linearGradient id="paint4_linear_113_271" x1="396.928" y1="-208.542" x2="-205.863" y2="109.336" gradientUnits="userSpaceOnUse">
<stop stop-color="#9EE6F7" stop-opacity="0"/>
<stop offset="1" stop-color="#9EE6F7" stop-opacity="0.46"/>
</linearGradient>
<linearGradient id="paint5_linear_113_271" x1="414.67" y1="-221.738" x2="-123.642" y2="155.579" gradientUnits="userSpaceOnUse">
<stop stop-color="#9EE6F7" stop-opacity="0"/>
<stop offset="1" stop-color="#9EE6F7" stop-opacity="0.46"/>
</linearGradient>
<linearGradient id="paint6_linear_113_271" x1="516.586" y1="-207.534" x2="23.8909" y2="-6.55273" gradientUnits="userSpaceOnUse">
<stop stop-color="#005AE2"/>
<stop offset="1" stop-color="#73E6FF" stop-opacity="0.38"/>
</linearGradient>
<clipPath id="clip0_113_271">
<rect width="1440" height="523" fill="white"/>
</clipPath>
</defs>
</svg>
