<svg width="600" height="224" viewBox="0 0 600 224" fill="none" xmlns="http://www.w3.org/2000/svg">
<g filter="url(#filter0_b_113_418)">
<rect width="600" height="224" rx="24" fill="#FEFEFE" fill-opacity="0.1"/>
<path d="M150 95.3334H160C162.189 95.3334 164.356 95.7645 166.378 96.602C168.4 97.4396 170.238 98.6673 171.785 100.215C173.333 101.763 174.56 103.6 175.398 105.622C176.236 107.644 176.667 109.811 176.667 112C176.667 114.189 176.236 116.356 175.398 118.378C174.56 120.4 173.333 122.238 171.785 123.785C170.238 125.333 168.4 126.56 166.378 127.398C164.356 128.236 162.189 128.667 160 128.667H150M130 128.667H120C117.811 128.667 115.644 128.236 113.622 127.398C111.6 126.56 109.763 125.333 108.215 123.785C105.089 120.66 103.333 116.42 103.333 112C103.333 107.58 105.089 103.341 108.215 100.215C111.341 97.0893 115.58 95.3334 120 95.3334H130" stroke="#141414" stroke-width="2" stroke-linecap="round" stroke-linejoin="round"/>
<path d="M126.667 112H153.333" stroke="#141414" stroke-width="2" stroke-linecap="round" stroke-linejoin="round"/>
<path d="M280 111C279.448 111 279 111.448 279 112C279 112.552 279.448 113 280 113V111ZM320 112L310 106.226V117.774L320 112ZM280 113H311V111H280V113Z" fill="#005AE2"/>
<path d="M364.816 80.208C362.72 80.208 361.168 79.168 360.576 77.456L361.856 76.72C362.288 78.08 363.296 78.752 364.848 78.752C366.384 78.752 367.216 78.064 367.216 77.024C367.216 76.496 367.008 76.096 366.608 75.824C366.208 75.552 365.52 75.28 364.576 74.976L363.504 74.624C363.264 74.528 362.944 74.384 362.576 74.208C362.208 74.016 361.936 73.824 361.76 73.632C361.392 73.232 361.056 72.576 361.056 71.76C361.056 70.784 361.392 70.016 362.08 69.456C362.768 68.88 363.6 68.592 364.576 68.592C366.352 68.592 367.712 69.568 368.368 71.04L367.12 71.76C366.64 70.608 365.792 70.032 364.576 70.032C363.36 70.032 362.544 70.672 362.544 71.696C362.544 72.192 362.72 72.56 363.072 72.816C363.424 73.072 364.032 73.344 364.896 73.616L365.552 73.824C365.68 73.872 365.872 73.936 366.144 74.048C366.704 74.256 366.832 74.336 367.264 74.576C367.712 74.816 367.856 74.992 368.128 75.312C368.528 75.712 368.688 76.288 368.688 76.992C368.688 77.968 368.336 78.752 367.616 79.344C366.896 79.92 365.968 80.208 364.816 80.208ZM378.174 76.64H371.47C371.742 78.064 372.846 78.896 374.366 78.896C375.422 78.896 376.19 78.512 376.67 77.728L377.854 78.4C377.07 79.6 375.902 80.208 374.334 80.208C373.07 80.208 372.03 79.808 371.23 79.024C370.446 78.224 370.046 77.216 370.046 76C370.046 74.8 370.43 73.792 371.214 72.992C371.998 72.192 373.006 71.792 374.238 71.792C375.406 71.792 376.366 72.208 377.102 73.04C377.854 73.856 378.222 74.848 378.222 76.016C378.222 76.224 378.206 76.432 378.174 76.64ZM374.238 73.104C372.75 73.104 371.71 74.016 371.47 75.424H376.814C376.574 73.904 375.518 73.104 374.238 73.104ZM386.43 73.376V72H387.822V80H386.43V78.624C385.742 79.68 384.734 80.208 383.406 80.208C382.286 80.208 381.326 79.808 380.542 78.992C379.758 78.176 379.358 77.168 379.358 76C379.358 74.832 379.758 73.84 380.542 73.024C381.326 72.208 382.286 71.792 383.406 71.792C384.734 71.792 385.742 72.32 386.43 73.376ZM383.582 78.864C384.398 78.864 385.07 78.592 385.614 78.048C386.158 77.488 386.43 76.816 386.43 76C386.43 75.184 386.158 74.512 385.614 73.968C385.07 73.408 384.398 73.136 383.582 73.136C382.782 73.136 382.11 73.408 381.566 73.968C381.022 74.512 380.75 75.184 380.75 76C380.75 76.816 381.022 77.488 381.566 78.048C382.11 78.592 382.782 78.864 383.582 78.864ZM398.571 71.792C400.363 71.792 401.579 73.04 401.579 75.024V80H400.187V75.072C400.187 73.84 399.499 73.12 398.427 73.12C397.227 73.12 396.459 73.904 396.459 75.552V80H395.067V75.072C395.067 73.84 394.411 73.12 393.371 73.12C392.203 73.12 391.323 73.936 391.323 75.552V80H389.931V72H391.323V73.072C391.867 72.224 392.667 71.792 393.707 71.792C394.779 71.792 395.563 72.24 396.059 73.152C396.619 72.24 397.451 71.792 398.571 71.792ZM404.901 80H403.509V68.32H404.901V80ZM414.705 76.64H408.001C408.273 78.064 409.377 78.896 410.897 78.896C411.953 78.896 412.721 78.512 413.201 77.728L414.385 78.4C413.601 79.6 412.433 80.208 410.865 80.208C409.601 80.208 408.561 79.808 407.761 79.024C406.977 78.224 406.577 77.216 406.577 76C406.577 74.8 406.961 73.792 407.745 72.992C408.529 72.192 409.537 71.792 410.769 71.792C411.937 71.792 412.897 72.208 413.633 73.04C414.385 73.856 414.753 74.848 414.753 76.016C414.753 76.224 414.737 76.432 414.705 76.64ZM410.769 73.104C409.281 73.104 408.241 74.016 408.001 75.424H413.345C413.105 73.904 412.049 73.104 410.769 73.104ZM417.24 74.16C417.24 74.784 417.944 75.12 418.824 75.36C420.072 75.632 421.736 76.096 421.72 77.808C421.72 78.528 421.432 79.12 420.872 79.552C420.312 79.984 419.608 80.208 418.728 80.208C417.176 80.208 416.008 79.472 415.544 78.336L416.744 77.648C417 78.416 417.752 78.896 418.728 78.896C419.64 78.896 420.312 78.56 420.312 77.808C420.312 77.184 419.608 76.832 418.728 76.624C417.464 76.288 415.832 75.872 415.832 74.176C415.832 73.488 416.104 72.912 416.632 72.464C417.176 72.016 417.848 71.792 418.664 71.792C419.96 71.792 421.032 72.416 421.544 73.456L420.376 74.112C420.088 73.424 419.512 73.088 418.664 73.088C417.88 73.088 417.24 73.472 417.24 74.16ZM424.069 74.16C424.069 74.784 424.773 75.12 425.653 75.36C426.901 75.632 428.565 76.096 428.549 77.808C428.549 78.528 428.261 79.12 427.701 79.552C427.141 79.984 426.437 80.208 425.557 80.208C424.005 80.208 422.837 79.472 422.373 78.336L423.573 77.648C423.829 78.416 424.581 78.896 425.557 78.896C426.469 78.896 427.141 78.56 427.141 77.808C427.141 77.184 426.437 76.832 425.557 76.624C424.293 76.288 422.661 75.872 422.661 74.176C422.661 73.488 422.933 72.912 423.461 72.464C424.005 72.016 424.677 71.792 425.493 71.792C426.789 71.792 427.861 72.416 428.373 73.456L427.205 74.112C426.917 73.424 426.341 73.088 425.493 73.088C424.709 73.088 424.069 73.472 424.069 74.16ZM431.511 80H430.118V68.32H431.511V80ZM436.914 78.272L439.218 72H440.706L437.442 80.496C436.754 82.304 435.49 83.312 433.89 83.2V81.904C434.866 81.984 435.586 81.44 436.05 80.272L436.194 79.968L432.706 72H434.194L436.914 78.272ZM450.221 72V73.344H448.093V77.68C448.093 78.912 448.797 78.816 450.221 78.752V80C447.789 80.32 446.701 79.664 446.701 77.68V73.344H445.117V72H446.701V70.176L448.093 69.76V72H450.221ZM453.307 72V73.344C453.771 72.352 454.603 71.856 455.803 71.856V73.312C455.115 73.28 454.539 73.456 454.043 73.856C453.547 74.256 453.307 74.88 453.307 75.76V80H451.915V72H453.307ZM463.352 73.376V72H464.744V80H463.352V78.624C462.664 79.68 461.656 80.208 460.328 80.208C459.208 80.208 458.248 79.808 457.464 78.992C456.68 78.176 456.28 77.168 456.28 76C456.28 74.832 456.68 73.84 457.464 73.024C458.248 72.208 459.208 71.792 460.328 71.792C461.656 71.792 462.664 72.32 463.352 73.376ZM460.504 78.864C461.32 78.864 461.992 78.592 462.536 78.048C463.08 77.488 463.352 76.816 463.352 76C463.352 75.184 463.08 74.512 462.536 73.968C461.992 73.408 461.32 73.136 460.504 73.136C459.704 73.136 459.032 73.408 458.488 73.968C457.944 74.512 457.672 75.184 457.672 76C457.672 76.816 457.944 77.488 458.488 78.048C459.032 78.592 459.704 78.864 460.504 78.864ZM470.837 71.792C472.709 71.792 473.941 73.056 473.941 75.088V80H472.549V75.168C472.549 73.872 471.797 73.12 470.565 73.12C469.173 73.12 468.245 73.968 468.245 75.76V80H466.853V72H468.245V73.152C468.805 72.24 469.669 71.792 470.837 71.792ZM477.084 74.16C477.084 74.784 477.788 75.12 478.668 75.36C479.916 75.632 481.58 76.096 481.564 77.808C481.564 78.528 481.276 79.12 480.716 79.552C480.156 79.984 479.452 80.208 478.572 80.208C477.02 80.208 475.852 79.472 475.388 78.336L476.588 77.648C476.844 78.416 477.596 78.896 478.572 78.896C479.484 78.896 480.156 78.56 480.156 77.808C480.156 77.184 479.452 76.832 478.572 76.624C477.308 76.288 475.676 75.872 475.676 74.176C475.676 73.488 475.948 72.912 476.476 72.464C477.02 72.016 477.692 71.792 478.508 71.792C479.804 71.792 480.876 72.416 481.388 73.456L480.22 74.112C479.932 73.424 479.356 73.088 478.508 73.088C477.724 73.088 477.084 73.472 477.084 74.16ZM487.152 68.592V69.936C485.744 69.824 485.04 70.432 485.04 71.76V72H487.152V73.344H485.04V80H483.648V73.344H482.368V72H483.648V71.76C483.648 69.6 484.896 68.448 487.152 68.592ZM494.527 78.992C493.711 79.808 492.703 80.208 491.535 80.208C490.367 80.208 489.359 79.808 488.543 78.992C487.727 78.176 487.327 77.184 487.327 76C487.327 74.816 487.727 73.824 488.543 73.008C489.359 72.192 490.367 71.792 491.535 71.792C492.703 71.792 493.711 72.192 494.527 73.008C495.343 73.824 495.759 74.816 495.759 76C495.759 77.184 495.343 78.176 494.527 78.992ZM491.535 78.848C492.335 78.848 493.007 78.576 493.551 78.032C494.095 77.488 494.367 76.816 494.367 76C494.367 75.184 494.095 74.512 493.551 73.968C493.007 73.424 492.335 73.152 491.535 73.152C490.751 73.152 490.079 73.424 489.535 73.968C488.991 74.512 488.719 75.184 488.719 76C488.719 76.816 488.991 77.488 489.535 78.032C490.079 78.576 490.751 78.848 491.535 78.848ZM498.792 72V73.344C499.256 72.352 500.088 71.856 501.288 71.856V73.312C500.6 73.28 500.024 73.456 499.528 73.856C499.032 74.256 498.792 74.88 498.792 75.76V80H497.4V72H498.792ZM511.29 71.792C513.082 71.792 514.298 73.04 514.298 75.024V80H512.906V75.072C512.906 73.84 512.218 73.12 511.146 73.12C509.946 73.12 509.178 73.904 509.178 75.552V80H507.786V75.072C507.786 73.84 507.13 73.12 506.09 73.12C504.922 73.12 504.042 73.936 504.042 75.552V80H502.65V72H504.042V73.072C504.586 72.224 505.386 71.792 506.426 71.792C507.498 71.792 508.282 72.24 508.778 73.152C509.338 72.24 510.17 71.792 511.29 71.792ZM523.508 78.272L525.812 72H527.3L524.036 80.496C523.348 82.304 522.084 83.312 520.484 83.2V81.904C521.46 81.984 522.18 81.44 522.644 80.272L522.788 79.968L519.3 72H520.788L523.508 78.272ZM534.902 78.992C534.086 79.808 533.078 80.208 531.91 80.208C530.742 80.208 529.734 79.808 528.918 78.992C528.102 78.176 527.702 77.184 527.702 76C527.702 74.816 528.102 73.824 528.918 73.008C529.734 72.192 530.742 71.792 531.91 71.792C533.078 71.792 534.086 72.192 534.902 73.008C535.718 73.824 536.134 74.816 536.134 76C536.134 77.184 535.718 78.176 534.902 78.992ZM531.91 78.848C532.71 78.848 533.382 78.576 533.926 78.032C534.47 77.488 534.742 76.816 534.742 76C534.742 75.184 534.47 74.512 533.926 73.968C533.382 73.424 532.71 73.152 531.91 73.152C531.126 73.152 530.454 73.424 529.91 73.968C529.366 74.512 529.094 75.184 529.094 76C529.094 76.816 529.366 77.488 529.91 78.032C530.454 78.576 531.126 78.848 531.91 78.848ZM543.295 76.24V72H544.687V80H543.295V78.848C542.735 79.76 541.871 80.208 540.703 80.208C538.831 80.208 537.599 78.944 537.599 76.912V72H538.991V76.832C538.991 78.128 539.743 78.88 540.975 78.88C542.367 78.88 543.295 78.032 543.295 76.24ZM548.198 72V73.344C548.662 72.352 549.494 71.856 550.694 71.856V73.312C550.006 73.28 549.43 73.456 548.934 73.856C548.438 74.256 548.198 74.88 548.198 75.76V80H546.806V72H548.198ZM362.448 104H361.056V92.32H362.448V104ZM371.324 102.992C370.508 103.808 369.5 104.208 368.332 104.208C367.164 104.208 366.156 103.808 365.34 102.992C364.524 102.176 364.124 101.184 364.124 100C364.124 98.816 364.524 97.824 365.34 97.008C366.156 96.192 367.164 95.792 368.332 95.792C369.5 95.792 370.508 96.192 371.324 97.008C372.14 97.824 372.556 98.816 372.556 100C372.556 101.184 372.14 102.176 371.324 102.992ZM368.332 102.848C369.132 102.848 369.804 102.576 370.348 102.032C370.892 101.488 371.164 100.816 371.164 100C371.164 99.184 370.892 98.512 370.348 97.968C369.804 97.424 369.132 97.152 368.332 97.152C367.548 97.152 366.876 97.424 366.332 97.968C365.788 98.512 365.516 99.184 365.516 100C365.516 100.816 365.788 101.488 366.332 102.032C366.876 102.576 367.548 102.848 368.332 102.848ZM378.181 95.792C380.053 95.792 381.285 97.056 381.285 99.088V104H379.893V99.168C379.893 97.872 379.141 97.12 377.909 97.12C376.517 97.12 375.589 97.968 375.589 99.76V104H374.197V96H375.589V97.152C376.149 96.24 377.013 95.792 378.181 95.792ZM389.868 97.376V96H391.244V103.664C391.244 104.848 390.844 105.76 390.044 106.416C389.244 107.072 388.284 107.408 387.164 107.408C385.372 107.408 384.028 106.72 383.372 105.456L384.588 104.768C385.02 105.664 385.9 106.112 387.196 106.112C388.86 106.112 389.868 105.184 389.868 103.664V102.528C389.164 103.6 388.156 104.128 386.86 104.128C385.724 104.128 384.748 103.728 383.964 102.912C383.18 102.096 382.78 101.12 382.78 99.952C382.78 98.784 383.18 97.808 383.964 97.008C384.748 96.192 385.724 95.792 386.86 95.792C388.172 95.792 389.18 96.32 389.868 97.376ZM389.868 99.952C389.868 99.152 389.596 98.48 389.052 97.936C388.508 97.392 387.836 97.12 387.02 97.12C386.204 97.12 385.532 97.392 384.988 97.936C384.444 98.48 384.172 99.152 384.172 99.952C384.172 100.768 384.444 101.44 384.988 101.984C385.532 102.528 386.204 102.8 387.02 102.8C387.836 102.8 388.508 102.528 389.052 101.984C389.596 101.44 389.868 100.768 389.868 99.952ZM397.353 100.24V92.8H398.841V100.176C398.841 101.76 399.817 102.752 401.561 102.752C403.305 102.752 404.281 101.76 404.281 100.176V92.8H405.753V100.24C405.753 101.44 405.369 102.416 404.585 103.136C403.801 103.856 402.793 104.208 401.561 104.208C400.329 104.208 399.305 103.856 398.521 103.136C397.737 102.416 397.353 101.44 397.353 100.24ZM416.316 104H414.668L412.156 99.712H409.516V104H408.028V92.8H412.508C413.468 92.8 414.284 93.136 414.972 93.824C415.66 94.496 415.996 95.312 415.996 96.272C415.996 96.992 415.772 97.664 415.34 98.256C414.908 98.848 414.364 99.28 413.676 99.52L416.316 104ZM412.508 94.192H409.516V98.368H412.508C413.068 98.368 413.532 98.16 413.916 97.76C414.316 97.344 414.508 96.848 414.508 96.272C414.508 95.696 414.316 95.2 413.916 94.8C413.532 94.4 413.068 94.192 412.508 94.192ZM419.297 92.8V102.592H424.129V104H417.809V92.8H419.297ZM426.678 98.16C426.678 98.784 427.382 99.12 428.262 99.36C429.51 99.632 431.174 100.096 431.158 101.808C431.158 102.528 430.87 103.12 430.31 103.552C429.75 103.984 429.046 104.208 428.166 104.208C426.614 104.208 425.446 103.472 424.982 102.336L426.182 101.648C426.438 102.416 427.19 102.896 428.166 102.896C429.078 102.896 429.75 102.56 429.75 101.808C429.75 101.184 429.046 100.832 428.166 100.624C426.902 100.288 425.27 99.872 425.27 98.176C425.27 97.488 425.542 96.912 426.07 96.464C426.614 96.016 427.286 95.792 428.102 95.792C429.398 95.792 430.47 96.416 430.982 97.456L429.814 98.112C429.526 97.424 428.95 97.088 428.102 97.088C427.318 97.088 426.678 97.472 426.678 98.16ZM437.51 94.544C436.982 94.544 436.566 94.128 436.566 93.616C436.566 93.104 436.982 92.672 437.51 92.672C438.022 92.672 438.438 93.104 438.438 93.616C438.438 94.128 438.022 94.544 437.51 94.544ZM438.198 104H436.806V96H438.198V104ZM444.306 95.792C446.178 95.792 447.41 97.056 447.41 99.088V104H446.018V99.168C446.018 97.872 445.266 97.12 444.034 97.12C442.642 97.12 441.714 97.968 441.714 99.76V104H440.322V96H441.714V97.152C442.274 96.24 443.138 95.792 444.306 95.792ZM453.705 96V97.344H451.577V101.68C451.577 102.912 452.281 102.816 453.705 102.752V104C451.273 104.32 450.185 103.664 450.185 101.68V97.344H448.601V96H450.185V94.176L451.577 93.76V96H453.705ZM461.699 102.992C460.883 103.808 459.875 104.208 458.707 104.208C457.539 104.208 456.531 103.808 455.715 102.992C454.899 102.176 454.499 101.184 454.499 100C454.499 98.816 454.899 97.824 455.715 97.008C456.531 96.192 457.539 95.792 458.707 95.792C459.875 95.792 460.883 96.192 461.699 97.008C462.515 97.824 462.931 98.816 462.931 100C462.931 101.184 462.515 102.176 461.699 102.992ZM458.707 102.848C459.507 102.848 460.179 102.576 460.723 102.032C461.267 101.488 461.539 100.816 461.539 100C461.539 99.184 461.267 98.512 460.723 97.968C460.179 97.424 459.507 97.152 458.707 97.152C457.923 97.152 457.251 97.424 456.707 97.968C456.163 98.512 455.891 99.184 455.891 100C455.891 100.816 456.163 101.488 456.707 102.032C457.251 102.576 457.923 102.848 458.707 102.848ZM472.3 104.208C471.1 104.208 470.092 103.808 469.276 102.992C468.476 102.176 468.076 101.184 468.076 100C468.076 98.8 468.476 97.808 469.276 97.008C470.092 96.192 471.1 95.792 472.3 95.792C473.852 95.792 475.228 96.592 475.868 97.856L474.38 98.72C474.012 97.952 473.244 97.488 472.284 97.488C471.58 97.488 470.988 97.728 470.508 98.208C470.044 98.688 469.804 99.28 469.804 100C469.804 100.72 470.044 101.312 470.508 101.792C470.988 102.272 471.58 102.512 472.284 102.512C473.228 102.512 474.028 102.032 474.412 101.28L475.9 102.128C475.212 103.408 473.852 104.208 472.3 104.208ZM480.8 104.208C479.632 104.208 478.624 103.808 477.808 102.992C476.992 102.176 476.576 101.184 476.576 100C476.576 98.816 476.992 97.824 477.808 97.008C478.624 96.192 479.632 95.792 480.8 95.792C481.984 95.792 482.976 96.192 483.792 97.008C484.608 97.824 485.024 98.816 485.024 100C485.024 101.184 484.608 102.176 483.792 102.992C482.976 103.808 481.984 104.208 480.8 104.208ZM479.024 101.808C479.504 102.288 480.096 102.528 480.8 102.528C481.504 102.528 482.096 102.288 482.576 101.808C483.056 101.328 483.296 100.72 483.296 100C483.296 99.28 483.056 98.672 482.576 98.192C482.096 97.712 481.504 97.472 480.8 97.472C480.096 97.472 479.504 97.712 479.024 98.192C478.544 98.672 478.304 99.28 478.304 100C478.304 100.72 478.544 101.328 479.024 101.808ZM490.794 95.792C492.634 95.792 493.866 97.04 493.866 99.088V104H492.138V99.264C492.138 98.064 491.45 97.408 490.346 97.408C489.13 97.408 488.314 98.16 488.314 99.712V104H486.586V96H488.314V97.024C488.842 96.208 489.658 95.792 490.794 95.792ZM499.503 104.208C498.303 104.208 497.295 103.808 496.479 102.992C495.679 102.176 495.279 101.184 495.279 100C495.279 98.8 495.679 97.808 496.479 97.008C497.295 96.192 498.303 95.792 499.503 95.792C501.055 95.792 502.431 96.592 503.071 97.856L501.583 98.72C501.215 97.952 500.447 97.488 499.487 97.488C498.783 97.488 498.191 97.728 497.711 98.208C497.247 98.688 497.007 99.28 497.007 100C497.007 100.72 497.247 101.312 497.711 101.792C498.191 102.272 498.783 102.512 499.487 102.512C500.431 102.512 501.231 102.032 501.615 101.28L503.103 102.128C502.415 103.408 501.055 104.208 499.503 104.208ZM505.984 94.48C505.552 94.912 504.88 94.912 504.432 94.48C504 94.032 504 93.36 504.432 92.928C504.864 92.48 505.568 92.48 506 92.928C506.432 93.36 506.432 94.032 505.984 94.48ZM506.08 104H504.352V96H506.08V104ZM509.591 98.208C509.591 98.736 510.263 99.008 511.095 99.248C512.327 99.52 513.927 100.032 513.895 101.744C513.895 102.512 513.591 103.12 512.999 103.552C512.407 103.984 511.671 104.208 510.775 104.208C509.191 104.208 508.023 103.504 507.511 102.336L508.999 101.472C509.271 102.24 509.863 102.624 510.775 102.624C511.687 102.624 512.135 102.32 512.135 101.728C512.135 101.216 511.463 100.912 510.615 100.704C509.415 100.4 507.799 99.92 507.831 98.24C507.831 97.504 508.103 96.912 508.663 96.464C509.223 96.016 509.927 95.792 510.759 95.792C512.087 95.792 513.159 96.416 513.719 97.456L512.263 98.272C511.991 97.664 511.479 97.36 510.759 97.36C510.103 97.36 509.591 97.648 509.591 98.208ZM522.939 100.736H516.571C516.827 101.952 517.803 102.624 519.131 102.624C520.043 102.624 520.731 102.288 521.195 101.632L522.619 102.464C521.835 103.632 520.667 104.208 519.115 104.208C517.819 104.208 516.763 103.808 515.963 103.024C515.163 102.224 514.763 101.216 514.763 100C514.763 98.8 515.163 97.808 515.947 97.008C516.731 96.192 517.755 95.792 518.987 95.792C520.155 95.792 521.115 96.208 521.867 97.024C522.619 97.84 523.003 98.848 523.003 100.016C523.003 100.192 522.987 100.432 522.939 100.736ZM516.555 99.328H521.259C521.019 98.032 520.107 97.36 518.971 97.36C517.691 97.36 516.795 98.112 516.555 99.328ZM535.196 97.376V96H536.588V104H535.196V102.624C534.508 103.68 533.5 104.208 532.172 104.208C531.052 104.208 530.092 103.808 529.308 102.992C528.524 102.176 528.124 101.168 528.124 100C528.124 98.832 528.524 97.84 529.308 97.024C530.092 96.208 531.052 95.792 532.172 95.792C533.5 95.792 534.508 96.32 535.196 97.376ZM532.348 102.864C533.164 102.864 533.836 102.592 534.38 102.048C534.924 101.488 535.196 100.816 535.196 100C535.196 99.184 534.924 98.512 534.38 97.968C533.836 97.408 533.164 97.136 532.348 97.136C531.548 97.136 530.876 97.408 530.332 97.968C529.788 98.512 529.516 99.184 529.516 100C529.516 100.816 529.788 101.488 530.332 102.048C530.876 102.592 531.548 102.864 532.348 102.864ZM542.681 95.792C544.553 95.792 545.785 97.056 545.785 99.088V104H544.393V99.168C544.393 97.872 543.641 97.12 542.409 97.12C541.017 97.12 540.089 97.968 540.089 99.76V104H538.697V96H540.089V97.152C540.649 96.24 541.513 95.792 542.681 95.792ZM554.352 97.376V92.8H555.744V104H554.352V102.624C553.664 103.68 552.656 104.208 551.328 104.208C550.208 104.208 549.248 103.808 548.464 102.992C547.68 102.176 547.28 101.168 547.28 100C547.28 98.832 547.68 97.84 548.464 97.024C549.248 96.208 550.208 95.792 551.328 95.792C552.656 95.792 553.664 96.32 554.352 97.376ZM551.504 102.864C552.32 102.864 552.992 102.592 553.536 102.048C554.08 101.488 554.352 100.816 554.352 100C554.352 99.184 554.08 98.512 553.536 97.968C552.992 97.408 552.32 97.136 551.504 97.136C550.704 97.136 550.032 97.408 549.488 97.968C548.944 98.512 548.672 99.184 548.672 100C548.672 100.816 548.944 101.488 549.488 102.048C550.032 102.592 550.704 102.864 551.504 102.864ZM362.56 122.208C362.56 122.736 363.232 123.008 364.064 123.248C365.296 123.52 366.896 124.032 366.864 125.744C366.864 126.512 366.56 127.12 365.968 127.552C365.376 127.984 364.64 128.208 363.744 128.208C362.16 128.208 360.992 127.504 360.48 126.336L361.968 125.472C362.24 126.24 362.832 126.624 363.744 126.624C364.656 126.624 365.104 126.32 365.104 125.728C365.104 125.216 364.432 124.912 363.584 124.704C362.384 124.4 360.768 123.92 360.8 122.24C360.8 121.504 361.072 120.912 361.632 120.464C362.192 120.016 362.896 119.792 363.728 119.792C365.056 119.792 366.128 120.416 366.688 121.456L365.232 122.272C364.96 121.664 364.448 121.36 363.728 121.36C363.072 121.36 362.56 121.648 362.56 122.208ZM372.497 119.792C374.337 119.792 375.569 121.04 375.569 123.088V128H373.841V123.264C373.841 122.064 373.153 121.408 372.049 121.408C370.833 121.408 370.017 122.16 370.017 123.712V128H368.289V116.8H370.017V121.024C370.545 120.208 371.361 119.792 372.497 119.792ZM383.766 121.136V120H385.494V128H383.766V126.848C383.11 127.76 382.182 128.208 380.966 128.208C379.862 128.208 378.934 127.808 378.15 126.992C377.366 126.176 376.982 125.168 376.982 124C376.982 122.816 377.366 121.824 378.15 121.008C378.934 120.192 379.862 119.792 380.966 119.792C382.182 119.792 383.11 120.24 383.766 121.136ZM379.43 125.84C379.91 126.32 380.518 126.56 381.238 126.56C381.958 126.56 382.566 126.32 383.046 125.84C383.526 125.344 383.766 124.736 383.766 124C383.766 123.264 383.526 122.656 383.046 122.176C382.566 121.68 381.958 121.44 381.238 121.44C380.518 121.44 379.91 121.68 379.43 122.176C378.95 122.656 378.71 123.264 378.71 124C378.71 124.736 378.95 125.344 379.43 125.84ZM389.236 120V121.344C389.668 120.352 390.5 119.856 391.7 119.856V121.728C391.044 121.68 390.468 121.84 389.972 122.208C389.476 122.56 389.236 123.152 389.236 123.968V128H387.508V120H389.236ZM400.33 124.736H393.962C394.218 125.952 395.194 126.624 396.522 126.624C397.434 126.624 398.122 126.288 398.586 125.632L400.01 126.464C399.226 127.632 398.058 128.208 396.506 128.208C395.21 128.208 394.154 127.808 393.354 127.024C392.554 126.224 392.154 125.216 392.154 124C392.154 122.8 392.554 121.808 393.338 121.008C394.122 120.192 395.146 119.792 396.378 119.792C397.546 119.792 398.506 120.208 399.258 121.024C400.01 121.84 400.394 122.848 400.394 124.016C400.394 124.192 400.378 124.432 400.33 124.736ZM393.946 123.328H398.65C398.41 122.032 397.498 121.36 396.362 121.36C395.082 121.36 394.186 122.112 393.946 123.328ZM408.203 121.136V120H409.931V128H408.203V126.848C407.547 127.76 406.619 128.208 405.403 128.208C404.299 128.208 403.371 127.808 402.587 126.992C401.803 126.176 401.419 125.168 401.419 124C401.419 122.816 401.803 121.824 402.587 121.008C403.371 120.192 404.299 119.792 405.403 119.792C406.619 119.792 407.547 120.24 408.203 121.136ZM403.867 125.84C404.347 126.32 404.955 126.56 405.675 126.56C406.395 126.56 407.003 126.32 407.483 125.84C407.963 125.344 408.203 124.736 408.203 124C408.203 123.264 407.963 122.656 407.483 122.176C407.003 121.68 406.395 121.44 405.675 121.44C404.955 121.44 404.347 121.68 403.867 122.176C403.387 122.656 403.147 123.264 403.147 124C403.147 124.736 403.387 125.344 403.867 125.84ZM416.474 119.792C417.578 119.792 418.506 120.192 419.29 121.008C420.074 121.824 420.458 122.816 420.458 124C420.458 125.168 420.074 126.176 419.29 126.992C418.506 127.808 417.578 128.208 416.474 128.208C415.258 128.208 414.33 127.76 413.674 126.848V128H411.946V116.8H413.674V121.136C414.33 120.24 415.258 119.792 416.474 119.792ZM414.394 125.84C414.874 126.32 415.482 126.56 416.202 126.56C416.922 126.56 417.53 126.32 418.01 125.84C418.49 125.344 418.73 124.736 418.73 124C418.73 123.264 418.49 122.656 418.01 122.176C417.53 121.68 416.922 121.44 416.202 121.44C415.482 121.44 414.874 121.68 414.394 122.176C413.914 122.656 413.674 123.264 413.674 124C413.674 124.736 413.914 125.344 414.394 125.84ZM423.752 128H422.024V116.32H423.752V128ZM433.486 124.736H427.118C427.374 125.952 428.35 126.624 429.678 126.624C430.59 126.624 431.278 126.288 431.742 125.632L433.166 126.464C432.382 127.632 431.214 128.208 429.662 128.208C428.366 128.208 427.31 127.808 426.51 127.024C425.71 126.224 425.31 125.216 425.31 124C425.31 122.8 425.71 121.808 426.494 121.008C427.278 120.192 428.302 119.792 429.534 119.792C430.702 119.792 431.662 120.208 432.414 121.024C433.166 121.84 433.55 122.848 433.55 124.016C433.55 124.192 433.534 124.432 433.486 124.736ZM427.102 123.328H431.806C431.566 122.032 430.654 121.36 429.518 121.36C428.238 121.36 427.342 122.112 427.102 123.328ZM440.799 128H439.071V116.32H440.799V128ZM444.437 118.48C444.005 118.912 443.333 118.912 442.885 118.48C442.453 118.032 442.453 117.36 442.885 116.928C443.317 116.48 444.021 116.48 444.453 116.928C444.885 117.36 444.885 118.032 444.437 118.48ZM444.533 128H442.805V120H444.533V128ZM450.747 119.792C452.587 119.792 453.819 121.04 453.819 123.088V128H452.091V123.264C452.091 122.064 451.403 121.408 450.299 121.408C449.083 121.408 448.267 122.16 448.267 123.712V128H446.539V120H448.267V121.024C448.795 120.208 449.611 119.792 450.747 119.792ZM459.104 123.92L462.752 128H460.688L457.408 124.304V128H455.68V116.8H457.408V123.536L460.512 120H462.624L459.104 123.92ZM464.904 122.208C464.904 122.736 465.576 123.008 466.408 123.248C467.64 123.52 469.24 124.032 469.208 125.744C469.208 126.512 468.904 127.12 468.312 127.552C467.72 127.984 466.984 128.208 466.088 128.208C464.504 128.208 463.336 127.504 462.824 126.336L464.312 125.472C464.584 126.24 465.176 126.624 466.088 126.624C467 126.624 467.448 126.32 467.448 125.728C467.448 125.216 466.776 124.912 465.928 124.704C464.728 124.4 463.112 123.92 463.144 122.24C463.144 121.504 463.416 120.912 463.976 120.464C464.536 120.016 465.24 119.792 466.072 119.792C467.4 119.792 468.472 120.416 469.032 121.456L467.576 122.272C467.304 121.664 466.792 121.36 466.072 121.36C465.416 121.36 464.904 121.648 464.904 122.208ZM482.439 126.096L484.199 120H485.655L483.175 128H481.751L479.879 122.08L478.007 128H476.583L474.103 120H475.559L477.319 126.08L479.207 120H480.551L482.439 126.096ZM487.791 118.544C487.263 118.544 486.847 118.128 486.847 117.616C486.847 117.104 487.263 116.672 487.791 116.672C488.303 116.672 488.719 117.104 488.719 117.616C488.719 118.128 488.303 118.544 487.791 118.544ZM488.479 128H487.087V120H488.479V128ZM494.955 120V121.344H492.827V125.68C492.827 126.912 493.531 126.816 494.955 126.752V128C492.523 128.32 491.435 127.664 491.435 125.68V121.344H489.851V120H491.435V118.176L492.827 117.76V120H494.955ZM500.587 119.792C502.459 119.792 503.691 121.056 503.691 123.088V128H502.299V123.168C502.299 121.872 501.547 121.12 500.315 121.12C498.923 121.12 497.995 121.968 497.995 123.76V128H496.603V116.8H497.995V121.152C498.555 120.24 499.419 119.792 500.587 119.792ZM510.69 118.544C510.162 118.544 509.746 118.128 509.746 117.616C509.746 117.104 510.162 116.672 510.69 116.672C511.202 116.672 511.618 117.104 511.618 117.616C511.618 118.128 511.202 118.544 510.69 118.544ZM509.986 128.48V120H511.378V128.48C511.378 130.544 510.322 131.552 508.29 131.408V130.064C509.458 130.176 509.986 129.712 509.986 128.48ZM519.014 124.24V120H520.406V128H519.014V126.848C518.454 127.76 517.59 128.208 516.422 128.208C514.549 128.208 513.318 126.944 513.318 124.912V120H514.71V124.832C514.71 126.128 515.462 126.88 516.694 126.88C518.086 126.88 519.014 126.032 519.014 124.24ZM523.709 122.16C523.709 122.784 524.413 123.12 525.293 123.36C526.541 123.632 528.205 124.096 528.189 125.808C528.189 126.528 527.901 127.12 527.341 127.552C526.781 127.984 526.077 128.208 525.197 128.208C523.645 128.208 522.477 127.472 522.013 126.336L523.213 125.648C523.469 126.416 524.221 126.896 525.197 126.896C526.109 126.896 526.781 126.56 526.781 125.808C526.781 125.184 526.077 124.832 525.197 124.624C523.933 124.288 522.301 123.872 522.301 122.176C522.301 121.488 522.573 120.912 523.101 120.464C523.645 120.016 524.317 119.792 525.133 119.792C526.429 119.792 527.501 120.416 528.013 121.456L526.845 122.112C526.557 121.424 525.981 121.088 525.133 121.088C524.349 121.088 523.709 121.472 523.709 122.16ZM533.877 120V121.344H531.749V125.68C531.749 126.912 532.453 126.816 533.877 126.752V128C531.445 128.32 530.357 127.664 530.357 125.68V121.344H528.773V120H530.357V118.176L531.749 117.76V120H533.877ZM365.168 140.592V141.936C363.76 141.824 363.056 142.432 363.056 143.76V144H365.168V145.344H363.056V152H361.664V145.344H360.384V144H361.664V143.76C361.664 141.6 362.912 140.448 365.168 140.592ZM373.47 148.64H366.766C367.038 150.064 368.142 150.896 369.662 150.896C370.718 150.896 371.486 150.512 371.966 149.728L373.15 150.4C372.366 151.6 371.198 152.208 369.63 152.208C368.366 152.208 367.326 151.808 366.526 151.024C365.742 150.224 365.342 149.216 365.342 148C365.342 146.8 365.726 145.792 366.51 144.992C367.294 144.192 368.302 143.792 369.534 143.792C370.702 143.792 371.662 144.208 372.398 145.04C373.15 145.856 373.518 146.848 373.518 148.016C373.518 148.224 373.502 148.432 373.47 148.64ZM369.534 145.104C368.046 145.104 367.006 146.016 366.766 147.424H372.11C371.87 145.904 370.814 145.104 369.534 145.104ZM382.47 150.096L384.23 144H385.686L383.206 152H381.782L379.91 146.08L378.038 152H376.614L374.134 144H375.59L377.35 150.08L379.238 144H380.582L382.47 150.096ZM394.879 152.208C393.679 152.208 392.671 151.808 391.871 151.008C391.071 150.192 390.671 149.2 390.671 148C390.671 146.8 391.071 145.808 391.871 145.008C392.671 144.192 393.679 143.792 394.879 143.792C396.463 143.792 397.791 144.608 398.415 145.888L397.247 146.56C396.847 145.712 395.951 145.152 394.879 145.152C394.079 145.152 393.407 145.424 392.863 145.968C392.335 146.512 392.062 147.184 392.062 148C392.062 148.8 392.335 149.472 392.863 150.016C393.407 150.56 394.079 150.832 394.879 150.832C395.951 150.832 396.847 150.288 397.295 149.44L398.479 150.128C397.791 151.392 396.431 152.208 394.879 152.208ZM401.245 152H399.853V140.32H401.245V152ZM404.073 142.544C403.545 142.544 403.129 142.128 403.129 141.616C403.129 141.104 403.545 140.672 404.073 140.672C404.585 140.672 405.001 141.104 405.001 141.616C405.001 142.128 404.585 142.544 404.073 142.544ZM404.761 152H403.368V144H404.761V152ZM410.644 152.208C409.444 152.208 408.436 151.808 407.636 151.008C406.836 150.192 406.436 149.2 406.436 148C406.436 146.8 406.836 145.808 407.636 145.008C408.436 144.192 409.444 143.792 410.644 143.792C412.228 143.792 413.556 144.608 414.18 145.888L413.012 146.56C412.612 145.712 411.716 145.152 410.644 145.152C409.844 145.152 409.172 145.424 408.628 145.968C408.1 146.512 407.828 147.184 407.828 148C407.828 148.8 408.1 149.472 408.628 150.016C409.172 150.56 409.844 150.832 410.644 150.832C411.716 150.832 412.612 150.288 413.06 149.44L414.244 150.128C413.556 151.392 412.196 152.208 410.644 152.208ZM418.435 147.872L422.387 152H420.659L417.011 148.208V152H415.618V140.8H417.011V147.536L420.467 144H422.259L418.435 147.872ZM424.272 146.16C424.272 146.784 424.976 147.12 425.856 147.36C427.104 147.632 428.768 148.096 428.752 149.808C428.752 150.528 428.464 151.12 427.904 151.552C427.344 151.984 426.64 152.208 425.76 152.208C424.208 152.208 423.04 151.472 422.576 150.336L423.776 149.648C424.032 150.416 424.784 150.896 425.76 150.896C426.672 150.896 427.344 150.56 427.344 149.808C427.344 149.184 426.64 148.832 425.76 148.624C424.496 148.288 422.864 147.872 422.864 146.176C422.864 145.488 423.136 144.912 423.664 144.464C424.208 144.016 424.88 143.792 425.696 143.792C426.992 143.792 428.064 144.416 428.576 145.456L427.408 146.112C427.12 145.424 426.544 145.088 425.696 145.088C424.912 145.088 424.272 145.472 424.272 146.16ZM431.108 152.176C430.532 152.176 430.068 151.712 430.068 151.136C430.068 150.56 430.532 150.096 431.108 150.096C431.7 150.096 432.148 150.56 432.148 151.136C432.148 151.712 431.7 152.176 431.108 152.176Z" fill="#141414"/>
<rect x="0.25" y="0.25" width="599.5" height="223.5" rx="23.75" stroke="#005AE2" stroke-width="0.5"/>
</g>
<defs>
<filter id="filter0_b_113_418" x="-212" y="-212" width="1024" height="648" filterUnits="userSpaceOnUse" color-interpolation-filters="sRGB">
<feFlood flood-opacity="0" result="BackgroundImageFix"/>
<feGaussianBlur in="BackgroundImageFix" stdDeviation="106"/>
<feComposite in2="SourceAlpha" operator="in" result="effect1_backgroundBlur_113_418"/>
<feBlend mode="normal" in="SourceGraphic" in2="effect1_backgroundBlur_113_418" result="shape"/>
</filter>
</defs>
</svg>
