<svg width="23" height="22" viewBox="0 0 23 22" fill="none" xmlns="http://www.w3.org/2000/svg">
<path d="M20.7004 0.4375C21.1301 0.4375 21.511 0.583984 21.843 0.876953C22.175 1.16992 22.3411 1.53125 22.3411 1.96094V20.4766C22.3411 20.9062 22.175 21.2676 21.843 21.5605C21.511 21.8535 21.1301 22 20.7004 22H2.302C1.87231 22 1.50122 21.8535 1.18872 21.5605C0.876221 21.2676 0.719971 20.9062 0.719971 20.4766V1.96094C0.719971 1.53125 0.876221 1.16992 1.18872 0.876953C1.50122 0.583984 1.87231 0.4375 2.302 0.4375H20.7004ZM7.10669 18.8359V8.52344H3.94263V18.8359H7.10669ZM5.52466 7.11719C6.03247 7.11719 6.47192 6.93164 6.84302 6.56055C7.21411 6.18945 7.39966 5.75 7.39966 5.24219C7.39966 4.73438 7.21411 4.29492 6.84302 3.92383C6.47192 3.55273 6.03247 3.36719 5.52466 3.36719C5.01685 3.36719 4.57739 3.55273 4.2063 3.92383C3.83521 4.29492 3.64966 4.73438 3.64966 5.24219C3.64966 5.78906 3.82544 6.23828 4.177 6.58984C4.52856 6.94141 4.97778 7.11719 5.52466 7.11719ZM19.1184 18.8359V13.1523C19.1184 11.5898 18.8547 10.3887 18.3274 9.54883C17.8 8.70898 16.7942 8.28906 15.3098 8.28906C13.8254 8.28906 12.8098 8.83594 12.2629 9.92969H12.2043V8.52344H9.15747V18.8359H12.3215V13.7383C12.3215 11.9805 12.9661 11.1016 14.2551 11.1016C14.7629 11.1016 15.1438 11.2676 15.3977 11.5996C15.6516 11.9316 15.7981 12.2441 15.8372 12.5371C15.8762 12.8301 15.8958 13.25 15.8958 13.7969V18.8359H19.1184Z" fill="#141414"/>
</svg>
