<svg width="451" height="240" viewBox="0 0 451 240" fill="none" xmlns="http://www.w3.org/2000/svg">
<path fill-rule="evenodd" clip-rule="evenodd" d="M130 156.975C77.1864 142.346 13.321 143.549 -20.5 109.883C-51.931 78.596 -50.7568 74.6482 -54.5752 35.6265C-58.2382 -1.80106 -44.3437 -36.7732 -29.1825 -72.5489C-9.75191 -118.397 -14.6996 -185.577 45.9618 -201.606C108.365 -218.094 161.481 -161.19 220.268 -138.461C259.346 -123.35 297.068 -110.693 332.225 -90.9203C375.971 -66.3179 442.541 -50.025 449.657 -9.45101C456.763 31.0673 385.024 53.8786 364.249 91.6783C338.681 138.202 370.818 205.501 315.679 234.327C262.279 262.244 191.104 173.901 130 156.975Z" fill="url(#paint0_linear_1982_1149)" fill-opacity="0.4"/>
<defs>
<linearGradient id="paint0_linear_1982_1149" x1="414.67" y1="-82.5462" x2="238.044" y2="250.014" gradientUnits="userSpaceOnUse">
<stop stop-color="#9EE6F7" stop-opacity="0"/>
<stop offset="1" stop-color="#9EE6F7" stop-opacity="0.46"/>
</linearGradient>
</defs>
</svg>
