<svg width="332" height="99" viewBox="0 0 332 99" fill="none" xmlns="http://www.w3.org/2000/svg">
<path fill-rule="evenodd" clip-rule="evenodd" d="M30.1262 142.229C45.4544 103.639 71.7154 68.0611 112.543 41.811C150.485 17.4166 199.23 6.83096 248.792 1.63789C296.329 -3.34264 341.843 4.35255 388.464 12.9003C448.211 23.8557 533.641 16.0756 557.937 58.3218C582.93 101.78 513.666 143.262 488.375 186.624C471.564 215.448 457.797 243.151 434.786 269.474C406.153 302.228 389.573 350.734 338.238 358.376C286.973 366.009 253.319 316.292 203.76 303.869C142.764 288.579 58.9027 315.757 18.6216 278.259C-20.388 241.944 12.3907 186.876 30.1262 142.229Z" fill="url(#paint0_linear_1982_1146)" fill-opacity="0.6"/>
<defs>
<linearGradient id="paint0_linear_1982_1146" x1="429.316" y1="328.8" x2="118.121" y2="72.6899" gradientUnits="userSpaceOnUse">
<stop stop-color="#005AE2"/>
<stop offset="1" stop-color="#73E6FF" stop-opacity="0.38"/>
</linearGradient>
</defs>
</svg>
