<svg width="281" height="367" viewBox="0 0 281 367" fill="none" xmlns="http://www.w3.org/2000/svg">
<path fill-rule="evenodd" clip-rule="evenodd" d="M59.7866 1.08188C101.896 1.16572 143.55 13.4068 179.293 43.9528C212.51 72.3395 234.461 117.03 251.219 164.678C267.293 210.379 252.576 250.601 254.927 300.743C257.94 365.002 303.318 456.069 266.81 497.173C229.255 539.457 171.664 486.427 122.463 478.245C89.7578 472.804 58.8834 469.972 27.2274 457.325C-12.1615 441.587 -64.464 444.176 -84.0817 395.721C-103.672 347.333 -61.8907 293.883 -61.0592 239.259C-60.0364 172.028 -106.755 98.6927 -78.7204 43.4393C-51.5702 -10.0707 11.0669 0.985018 59.7866 1.08188Z" fill="url(#paint0_linear_1982_1200)" fill-opacity="0.4"/>
<defs>
<linearGradient id="paint0_linear_1982_1200" x1="-33.2836" y1="475.343" x2="119.695" y2="50.9411" gradientUnits="userSpaceOnUse">
<stop stop-color="#9EE6F7" stop-opacity="0"/>
<stop offset="1" stop-color="#9EE6F7" stop-opacity="0.46"/>
</linearGradient>
</defs>
</svg>
