<svg width="216" height="340" viewBox="0 0 216 340" fill="none" xmlns="http://www.w3.org/2000/svg">
<path fill-rule="evenodd" clip-rule="evenodd" d="M23.0397 418.17C3.26067 380.994 -5.58239 338.489 4.50426 292.566C13.8775 249.889 42.9405 209.461 77.0599 172.219C109.785 136.497 152.195 130.513 195.306 104.799C250.554 71.8466 309.471 -11.1061 362.932 1.71038C417.928 14.8947 398.314 90.6849 414.293 137.932C424.915 169.34 436.974 197.903 440.745 231.782C445.436 273.939 472.378 318.843 438.895 358.988C405.458 399.078 338.623 387.431 290.059 412.451C230.287 443.245 187.639 519.02 125.695 520.347C65.7047 521.632 45.9236 461.181 23.0397 418.17Z" fill="url(#paint0_linear_1982_1139)" fill-opacity="0.4"/>
<defs>
<linearGradient id="paint0_linear_1982_1139" x1="485.164" y1="276.651" x2="38.7655" y2="341.831" gradientUnits="userSpaceOnUse">
<stop stop-color="#9EE6F7" stop-opacity="0"/>
<stop offset="1" stop-color="#9EE6F7" stop-opacity="0.46"/>
</linearGradient>
</defs>
</svg>
