<svg width="61" height="560" viewBox="0 0 61 560" fill="none" xmlns="http://www.w3.org/2000/svg">
<path opacity="0.4" fill-rule="evenodd" clip-rule="evenodd" d="M-88.6289 27.8488C-49.6352 42.1199 -13.3556 67.402 13.997 107.5C39.416 144.763 51.3257 193.201 57.867 242.604C64.1407 289.987 57.6883 335.694 50.4138 382.531C41.0902 442.553 51.1947 527.74 9.62609 553.178C-33.1346 579.346 -76.4886 511.237 -120.523 487.137C-149.795 471.117 -177.862 458.11 -204.803 435.825C-238.325 408.095 -287.264 392.843 -296.302 341.735C-305.328 290.697 -256.547 255.701 -245.479 205.822C-231.856 144.432 -261.309 61.342 -224.922 20.0542C-189.683 -19.9302 -133.743 11.3362 -88.6289 27.8488Z" fill="url(#paint0_linear_1982_1136)" fill-opacity="0.6"/>
<defs>
<linearGradient id="paint0_linear_1982_1136" x1="-264.255" y1="431.973" x2="-16.7185" y2="113.916" gradientUnits="userSpaceOnUse">
<stop stop-color="#005AE2"/>
<stop offset="1" stop-color="#73E6FF" stop-opacity="0.38"/>
</linearGradient>
</defs>
</svg>
