<svg width="113" height="318" viewBox="0 0 113 318" fill="none" xmlns="http://www.w3.org/2000/svg">
<path opacity="0.5" fill-rule="evenodd" clip-rule="evenodd" d="M2.62224 341.153C-3.17619 300.036 2.01529 256.122 24.4813 213.096C45.3591 173.111 82.4615 139.771 122.945 110.711C161.774 82.8392 205.124 66.9804 249.858 51.3141C307.187 31.2381 377.548 -17.8349 419.58 6.8309C462.817 32.2037 423.193 102.548 422.7 152.744C422.372 186.111 424.134 216.995 417.182 251.26C408.532 293.896 418.154 344.246 377.344 376.312C336.59 408.335 282.729 381.814 233.523 395.569C172.961 412.499 113.571 477.646 60.0054 465.023C8.12985 452.797 9.32937 388.723 2.62224 341.153Z" fill="url(#paint0_linear_1982_1140)" fill-opacity="0.6"/>
<defs>
<linearGradient id="paint0_linear_1982_1140" x1="441.815" y1="305.507" x2="44.6209" y2="237.159" gradientUnits="userSpaceOnUse">
<stop stop-color="#005AE2"/>
<stop offset="1" stop-color="#73E6FF" stop-opacity="0.38"/>
</linearGradient>
</defs>
</svg>
