<svg width="404" height="159" viewBox="0 0 404 159" fill="none" xmlns="http://www.w3.org/2000/svg">
<path fill-rule="evenodd" clip-rule="evenodd" d="M3.13498 209.119C4.36595 167.028 17.7373 125.723 49.2457 90.8248C78.5267 58.3934 123.799 37.668 171.885 22.2145C218.008 7.392 257.814 23.1992 308.001 22.2146C372.318 20.9535 464.588 -21.9266 504.682 15.6871C545.927 54.3804 491.348 110.505 481.828 159.465C475.499 192.01 471.827 222.796 458.321 254.096C441.517 293.041 442.68 345.395 393.708 363.685C344.804 381.95 292.512 338.728 237.931 336.409C170.754 333.555 96.1726 378.258 41.7034 348.729C-11.0471 320.131 1.7109 257.818 3.13498 209.119Z" fill="url(#paint0_linear_1982_1145)" fill-opacity="0.4"/>
<defs>
<linearGradient id="paint0_linear_1982_1145" x1="474.685" y1="315.075" x2="54.6077" y2="150.592" gradientUnits="userSpaceOnUse">
<stop stop-color="#9EE6F7" stop-opacity="0"/>
<stop offset="1" stop-color="#9EE6F7" stop-opacity="0.46"/>
</linearGradient>
</defs>
</svg>
