<svg width="219" height="295" viewBox="0 0 219 295" fill="none" xmlns="http://www.w3.org/2000/svg">
<path opacity="0.4" fill-rule="evenodd" clip-rule="evenodd" d="M69.3709 27.8488C108.365 42.1199 144.644 67.402 171.997 107.5C197.416 144.763 209.325 193.201 215.867 242.604C222.14 289.987 215.688 335.694 208.414 382.531C199.09 442.553 209.194 527.74 167.626 553.178C124.865 579.346 81.5112 511.237 37.4764 487.137C8.20466 471.117 -19.8625 458.11 -46.8031 435.825C-80.325 408.095 -129.264 392.843 -138.303 341.735C-147.329 290.697 -98.5468 255.701 -87.4788 205.822C-73.8564 144.432 -103.309 61.342 -66.9226 20.0542C-31.6836 -19.9302 24.2571 11.3362 69.3709 27.8488Z" fill="url(#paint0_linear_1982_1201)" fill-opacity="0.6"/>
<defs>
<linearGradient id="paint0_linear_1982_1201" x1="-106.256" y1="431.973" x2="141.281" y2="113.916" gradientUnits="userSpaceOnUse">
<stop stop-color="#005AE2"/>
<stop offset="1" stop-color="#73E6FF" stop-opacity="0.38"/>
</linearGradient>
</defs>
</svg>
